<?xml version="1.0" encoding="UTF-8"?>
<svg id="Ebene_2" data-name="Ebene 2" xmlns="http://www.w3.org/2000/svg" viewBox="0 0 489.03 281.88">
  <g id="Ebene_2-2" data-name="Ebene 2">
    <g>
      <g>
        <g>
          <path d="m475.76,137.31c-.85,0-1.53-.69-1.53-1.53v-15.45h-7.49v15.43c0,.85-.69,1.53-1.53,1.53h-7.31c-.85,0-1.53-.69-1.53-1.53v-5.77h-3.97c-.85,0-1.53-.69-1.53-1.53v-50.04l-8.6-4.98v55.03c0,.85-.69,1.53-1.53,1.53h-10.62c-.41,0-.8-.16-1.09-.45-.29-.29-.45-.68-.45-1.09l.52-62.68-8.87-5.11v53.01c0,.62-.37,1.18-.95,1.42-.57.24-1.23.1-1.67-.34l-11.39-11.54h-32.06c-.85,0-1.53-.69-1.53-1.53v-10.11l-1.64-1.99c-.23-.27-.35-.62-.35-.97v-21.81c0-.12.01-.24.04-.36l.03-.15-.05-.14c-.1-.29-.12-.6-.04-.89l.13-.51c.82-4.44-1.3-7.27-6.12-8.17-.07-.01-.15-.03-.23-.06l-.14-.04-.14.04c-.08.02-.15.04-.22.05-4.82.9-6.93,3.77-6.08,8.33l.09.35c.07.29.06.58-.04.86l-.05.14.04.15c.03.13.05.26.05.4l-.12,22.41c0,.47-.23.93-.6,1.21l-2.67,2.03c-.66.5-1.59.39-2.11-.24l-3.1-3.77c-.22-.27-.35-.62-.35-.97l-.12-23.3c0-.14.02-.27.05-.4l.04-.15-.06-.15c-.1-.26-.12-.54-.07-.81l.09-.5c.45-2.43.12-4.42-.98-5.92-1.1-1.49-2.95-2.48-5.52-2.96-.09-.02-.17-.04-.26-.07l-.15-.04-.15.04c-.08.03-.17.05-.25.06-5.16.96-7.41,4.03-6.51,8.9l.1.4c.09.39.03.8-.17,1.14l-.12.2.8,2.39c.05.15.08.31.08.47l.09,6.16v22.63c0,.39-.15.77-.42,1.05l-2.1,2.23v22.99h29.73v-10.19c0-.85.69-1.53,1.54-1.53h27.08c.85,0,1.53.69,1.53,1.53v24.15c0,.85-.69,1.53-1.53,1.53h-59.88c-.85,0-1.53-.69-1.53-1.53v-10.9h-10.98v10.9c0,.85-.69,1.53-1.53,1.53h-9.45c-.85,0-1.53-.69-1.53-1.53v-12.44c0-.85.69-1.53,1.53-1.53h7.91v-11.36h-.63c-.85,0-1.53-.69-1.53-1.53v-21.22s-.99-6.97-.99-6.97l-1.86-.51c-.57-.15-1-.63-1.1-1.2l-1.77-9.78-1.78,9.78c-.1.58-.54,1.05-1.1,1.2l-1.86.51-.98,7.05v21.15c0,.85-.69,1.53-1.53,1.53h-.63v12.91c0,.85-.69,1.53-1.53,1.53h-16.67c-.85,0-1.53-.69-1.53-1.54v-10.17h-17.92v22.59c0,.85-.69,1.53-1.53,1.53h-15.44v8.25h15.44c.85,0,1.53.69,1.53,1.53v22.59h17.92v-10.17c0-.85.69-1.53,1.53-1.53h16.67c.85,0,1.53.68,1.53,1.53v12.91h.63c.85,0,1.53.69,1.53,1.53v21.22s.98,6.98.98,6.98l1.86.51c.57.15,1,.63,1.1,1.2l1.78,9.78,1.77-9.78c.1-.58.54-1.05,1.1-1.2l1.86-.51.99-7.04v-21.15c0-.85.69-1.53,1.53-1.53h.63v-11.36h-7.91c-.85,0-1.53-.69-1.53-1.53v-12.44c0-.85.69-1.53,1.53-1.53h9.45c.85,0,1.53.69,1.53,1.53v10.9h10.98v-10.9c0-.85.69-1.53,1.53-1.53h59.88c.85,0,1.53.69,1.53,1.53v24.15c0,.85-.69,1.53-1.53,1.53h-27.08c-.85,0-1.53-.69-1.53-1.53v-10.19h-29.73v22.99l2.1,2.22c.27.29.42.66.42,1.05v22.62l-.09,6.16c0,.16-.03.32-.08.47l-.8,2.39.12.2c.21.35.27.75.17,1.14l-.1.43c-.9,4.84,1.35,7.91,6.52,8.87.08.01.16.04.24.06l.15.05.15-.05c.09-.03.17-.05.25-.06,2.57-.48,4.43-1.47,5.53-2.96,1.1-1.5,1.43-3.49.98-5.92l-.09-.5c-.05-.27-.02-.55.07-.81l.06-.15-.04-.15c-.03-.13-.05-.27-.05-.4l.12-23.3c0-.35.13-.69.35-.97l3.1-3.77c.53-.64,1.45-.75,2.11-.24l2.67,2.03c.38.29.6.74.6,1.21l.12,22.42c0,.13-.02.26-.05.39l-.04.15.05.14c.09.28.11.57.04.86l-.1.39c-.84,4.52,1.26,7.39,6.09,8.3.07.01.14.03.22.05l.14.04.14-.04c.08-.02.15-.04.23-.05,4.83-.9,6.94-3.73,6.12-8.2l-.12-.47c-.08-.3-.06-.6.04-.89l.05-.14-.03-.14c-.03-.12-.04-.24-.04-.36v-21.81c0-.36.12-.7.35-.98l1.64-1.99v-10.11c0-.85.69-1.53,1.53-1.53h32.06l11.39-11.54c.44-.45,1.1-.58,1.67-.34.58.24.95.79.95,1.42v53.01l8.87-5.11-.52-62.68c0-.41.15-.8.45-1.09.29-.29.67-.45,1.09-.45h10.62c.85,0,1.53.69,1.53,1.53v55.03l8.6-4.98v-50.04c0-.84.69-1.53,1.53-1.53h3.97v-5.77c0-.85.69-1.53,1.53-1.53h7.31c.85,0,1.53.69,1.53,1.53v15.43h7.49v-15.45c0-.85.69-1.53,1.53-1.53h13.27s0-8.25,0-8.25h-13.27Z" style="fill: #fff;"/>
          <rect x="309.83" y="148.63" width="6.38" height="9.37" style="fill: #fff;"/>
          <path d="m390.13,113.16h-24.02v10.19c0,.85-.69,1.53-1.54,1.53h-31.26v9.37h56.82v-21.09Z" style="fill: #fff;"/>
          <rect x="309.83" y="124.88" width="6.38" height="9.37" style="fill: #fff;"/>
          <path d="m366.11,159.53v10.19h24.02v-21.09h-56.82v9.37h31.26c.85,0,1.53.69,1.53,1.53Z" style="fill: #fff;"/>
        </g>
        <path d="m477.21,148.62v15.53c0,.8-.65,1.45-1.45,1.45h-10.56c-.8,0-1.45-.65-1.45-1.45v-15.51h-4.4v5.86c0,.8-.65,1.45-1.45,1.45h-4.05v49.47c0,.52-.28,1-.72,1.26l-11.67,6.76c-.45.26-1.01.26-1.45,0-.45-.26-.73-.74-.73-1.26v-56.24h-7.71l.51,62.11c0,.52-.27,1.01-.73,1.27l-11.94,6.89c-.45.26-1.01.26-1.45,0-.45-.26-.73-.74-.73-1.26v-52.12l-9.78,9.91h-31.86v9.21c0,.34-.12.66-.33.92l-1.66,2.01v20.62l.08.29.11.15c.36.5.37,1.17.02,1.67l-.13.19.03.22c.85,5.61-1.92,9.64-7.58,11.07l-.44.11v.45c0,.8-.66,1.44-1.45,1.44s-1.45-.65-1.45-1.44v-.45s-.44-.11-.44-.11c-5.63-1.41-8.39-5.45-7.57-11.08l.03-.22-.12-.19c-.34-.5-.33-1.17.11-1.77l.11-.15-.11-21.22-.98-.75-1.89,2.29-.12,22.11v.19l.21.29c.38.52.37,1.22-.02,1.73l-.15.2.04.24c.9,5.93-2.03,10.17-8.04,11.63l-.44.18v.46c0,.8-.65,1.45-1.45,1.45s-1.45-.65-1.45-1.53v-.46l-.44-.11c-5.98-1.46-8.91-5.7-8.03-11.66l.04-.23-.14-.19c-.28-.38-.35-.87-.2-1.32l1.01-3,.11-27.79v-.23l-2.12-2.25c-.25-.27-.39-.62-.39-.99v-23.68h-11.14v12.97c0,.8-.65,1.45-1.59,1.45h-.58v19.84c0,.07,0,.14-.01.2l-1.15,8.11c-.08.57-.49,1.04-1.06,1.2l-1.95.54-3.12,17.19c-.12.69-.73,1.19-1.43,1.19s-1.3-.5-1.43-1.19l-3.13-17.19-1.95-.54c-.56-.15-.97-.62-1.05-1.2l-1.14-8.12c0-.07-.01-.13-.01-.2v-19.26l-.13-.58h-.58c-.8,0-1.45-.65-1.45-1.45v-12.99h-13.76v10.26c0,.8-.65,1.45-1.45,1.45h-20.99c-.8,0-1.45-.65-1.45-1.45v-22.67h-13.99v62.77l121.62,70.48,121.62-70.48v-62.77h-11.82Z" style="fill: #1d1d1b;"/>
        <path d="m477.79,133.75v-14.95c0-1.12-.91-2.03-2.03-2.03h-10.56c-1.12,0-2.03.91-2.03,2.03v14.93h-3.24v-5.27c0-1.12-.91-2.03-2.03-2.03h-3.47v-48.89c0-.73-.39-1.4-1.01-1.76l-11.66-6.76c-.63-.37-1.41-.37-2.03,0-.63.36-1.02,1.03-1.02,1.76v55.66h-6.54l.51-61.52c0-.73-.38-1.41-1.02-1.78l-11.94-6.89c-.63-.36-1.41-.36-2.03,0-.63.36-1.02,1.03-1.02,1.76v50.71l-8.98-9.1-.03.03h-31.47v-8.63c0-.47-.16-.93-.47-1.29l-1.53-1.85v-20.42l.08-.1c.51-.71.51-1.64.04-2.34.89-5.92-2.06-10.22-8.02-11.71,0-1.12-.92-2.02-2.03-2.02s-2.02.9-2.03,2.02c-5.92,1.48-8.88,5.75-8.01,11.73-.47.7-.46,1.63.04,2.33l.07.1-.11,20.75-.31.24-1.4-1.7-.12-21.91.1-.14c.53-.74.51-1.72-.02-2.43.94-6.23-2.18-10.75-8.48-12.28v-.07c0-1.12-.91-2.03-2.03-2.03s-2.03.91-2.03,2.03v.07c-6.27,1.53-9.39,6.02-8.46,12.3-.39.53-.5,1.22-.28,1.85l1.01,3,.08,27.61-1.96,2.08c-.36.38-.55.88-.55,1.39v23.1h-9.98v-12.39c0-1.12-.91-2.03-2.03-2.03h-.13v-19.26c0-.1,0-.19-.02-.29l-1.15-8.11c-.11-.8-.69-1.46-1.48-1.67l-1.6-.44-3.05-16.83c-.17-.97-1.02-1.67-2-1.67h0c-.98,0-1.82.7-2,1.67l-3.06,16.83-1.6.44c-.78.21-1.36.87-1.48,1.68l-1.14,8.11c-.01.09-.02.19-.02.28v19.26h-.13c-1.12,0-2.03.91-2.03,2.03v12.41h-10.25s-2.35,0-2.35,0v-9.67c0-1.12-.91-2.03-2.03-2.03h-20.99c-1.12,0-2.03.91-2.03,2.03v22.09h-7.6v-58.91L367.41,7.71l115.81,67.12v58.91h-5.43Z" style="fill: #fff;"/>
        <path d="m489.03,71.48L367.41,1l-120.17,69.65-1.45.84v66.33h2.73s12.71,0,12.71,0c1.12,0,2.03-.91,2.03-2.03v-22.09h16.92v9.67c0,1.12.91,2.03,2.03,2.03h3.86s12.8,0,12.8,0c1.12,0,2.03-.91,2.03-2.03v-12.41h.13c1.12,0,2.03-.91,2.03-2.03v-21.15l.93-6.65,1.54-.42c.75-.21,1.32-.83,1.46-1.6l1.29-7.07,1.28,7.07c.14.77.71,1.39,1.46,1.6l1.54.42.94,6.65v21.15c0,1.12.91,2.03,2.03,2.03h.13v10.36h-7.41c-1.12,0-2.03.91-2.03,2.03v12.44c0,1.12.91,2.03,2.03,2.03h9.45c1.12,0,2.03-.91,2.03-2.03v-10.4h9.98v10.4c0,1.12.91,2.03,2.03,2.03h59.88c1.12,0,2.03-.91,2.03-2.03v-24.15c0-1.12-.91-2.03-2.03-2.03h-27.08c-1.12,0-2.03.91-2.03,2.03v9.69h-28.73v-22.29l1.96-2.08c.36-.38.55-.88.55-1.39v-22.63l-.09-6.16c0-.21-.04-.42-.11-.62l-.73-2.17c.27-.45.35-.99.23-1.51l-.1-.4c-.85-4.59,1.2-7.37,6.11-8.29.1-.02.2-.04.31-.07.1.03.21.06.31.08,4.91.91,6.96,3.7,6.11,8.3l-.09.5c-.07.37-.03.74.1,1.08-.05.17-.07.35-.07.53l.12,23.3c0,.47.17.92.46,1.28l3.1,3.77c.7.84,1.93.98,2.8.32l2.67-2.03c.5-.38.8-.98.8-1.61l.12-22.41c0-.18-.02-.35-.07-.52.12-.36.14-.76.05-1.14l-.09-.36c-.79-4.26,1.12-6.86,5.69-7.71.09-.02.18-.04.28-.07.1.03.19.05.27.07,4.57.86,6.49,3.45,5.72,7.59l-.12.47c-.1.4-.08.81.06,1.18-.04.16-.06.32-.06.48v21.81c0,.47.16.93.47,1.29l1.53,1.85v9.93c0,1.12.91,2.03,2.03,2.03h31.85l11.24,11.39c.58.59,1.46.77,2.22.45.76-.31,1.26-1.06,1.26-1.88v-52.14l7.86,4.54-.51,62.39c0,.54.21,1.06.59,1.45s.9.6,1.44.6h10.62c1.12,0,2.03-.91,2.03-2.03v-54.16l7.6,4.4v49.75c0,1.12.91,2.03,2.03,2.03h3.47v5.27c0,1.12.91,2.03,2.03,2.03h7.31c1.12,0,2.03-.91,2.03-2.03v-14.93h6.49v14.95c0,1.12.91,2.03,2.03,2.03h9.27s4,0,4,0v-66.33Zm-173.32,62.26h-5.38v-8.37h5.38v8.37Zm48.87-8.37c1.12,0,2.03-.91,2.03-2.03v-9.69h23.02v20.09h-55.82v-8.37h30.76Zm113.21,8.37v-14.95c0-1.12-.91-2.03-2.03-2.03h-10.56c-1.12,0-2.03.91-2.03,2.03v14.93h-3.24v-5.27c0-1.12-.91-2.03-2.03-2.03h-3.47v-48.89c0-.73-.39-1.4-1.01-1.76l-11.66-6.76c-.63-.37-1.41-.37-2.03,0-.63.36-1.02,1.03-1.02,1.76v55.66h-6.54l.51-61.52c0-.73-.38-1.41-1.02-1.78l-11.94-6.89c-.63-.36-1.41-.36-2.03,0-.63.36-1.02,1.03-1.02,1.76v50.71l-8.98-9.1-.03.03h-31.47v-8.63c0-.47-.16-.93-.47-1.29l-1.53-1.85v-20.42l.08-.1c.51-.71.51-1.64.04-2.34.89-5.92-2.06-10.22-8.02-11.71,0-1.12-.92-2.02-2.03-2.02s-2.02.9-2.03,2.02c-5.92,1.48-8.88,5.75-8.01,11.73-.47.7-.46,1.63.04,2.33l.07.1-.11,20.75-.31.24-1.4-1.7-.12-21.91.1-.14c.53-.74.51-1.72-.02-2.43.94-6.23-2.18-10.75-8.48-12.28v-.07c0-1.12-.91-2.03-2.03-2.03s-2.03.91-2.03,2.03v.07c-6.27,1.53-9.39,6.02-8.46,12.3-.39.53-.5,1.22-.28,1.85l1.01,3,.08,27.61-1.96,2.08c-.36.38-.55.88-.55,1.39v23.1h-9.98v-12.39c0-1.12-.91-2.03-2.03-2.03h-.13v-19.26c0-.1,0-.19-.02-.29l-1.15-8.11c-.11-.8-.69-1.46-1.48-1.67l-1.6-.44-3.05-16.83c-.17-.97-1.02-1.67-2-1.67h0c-.98,0-1.82.7-2,1.67l-3.06,16.83-1.6.44c-.78.21-1.36.87-1.48,1.68l-1.14,8.11c-.01.09-.02.19-.02.28v19.26h-.13c-1.12,0-2.03.91-2.03,2.03v12.41h-10.25s-2.35,0-2.35,0v-9.67c0-1.12-.91-2.03-2.03-2.03h-20.99c-1.12,0-2.03.91-2.03,2.03v22.09h-7.6v-58.91L367.41,7.71l115.81,67.12v58.91h-5.43Z" style="fill: #1d1d1b;"/>
        <path d="m315.71,157.5h-5.38v-8.37h5.38v8.37Zm18.11,0v-8.37h55.82v20.09h-23.02v-9.69c0-1.12-.91-2.03-2.04-2.03h-30.76Zm155.21-12.44h-4s-9.27,0-9.27,0c-1.12,0-2.03.91-2.03,2.03v14.95h-6.49v-14.93c0-1.12-.91-2.03-2.03-2.03h-7.31c-1.12,0-2.03.91-2.03,2.03v5.27h-3.47c-1.12,0-2.03.91-2.03,2.03v49.75l-7.6,4.4v-54.16c0-1.12-.91-2.03-2.03-2.03h-10.62c-.54,0-1.06.22-1.44.6s-.59.91-.59,1.45l.51,62.39-7.86,4.54v-52.14c0-.82-.5-1.57-1.26-1.88-.76-.31-1.64-.13-2.22.45l-11.24,11.39h-31.85c-1.12,0-2.03.91-2.03,2.03v9.93l-1.53,1.85c-.3.36-.47.82-.47,1.29v21.81c0,.16.02.32.06.48-.13.37-.16.79-.06,1.18l.12.47c.76,4.14-1.15,6.73-5.72,7.59-.09.02-.18.04-.27.07-.1-.03-.19-.05-.28-.07-4.56-.86-6.48-3.45-5.69-7.71l.09-.36c.1-.38.08-.78-.05-1.14.04-.17.07-.34.07-.52l-.12-22.41c0-.63-.3-1.23-.8-1.61l-2.67-2.03c-.87-.66-2.1-.52-2.8.32l-3.1,3.77c-.3.36-.46.81-.46,1.28l-.12,23.3c0,.18.02.36.07.53-.13.34-.16.71-.1,1.08l.09.5c.86,4.6-1.2,7.39-6.11,8.3-.1.02-.21.05-.31.08-.1-.03-.21-.06-.31-.07-4.91-.91-6.97-3.7-6.11-8.29l.1-.4c.13-.52.04-1.06-.23-1.51l.73-2.17c.07-.2.1-.41.11-.62l.09-6.16v-22.63c0-.52-.2-1.02-.55-1.39l-1.96-2.08v-22.29h28.73v9.69c0,1.12.91,2.03,2.04,2.03h27.08c1.12,0,2.03-.91,2.03-2.03v-24.15c0-1.12-.91-2.03-2.03-2.03h-59.88c-1.12,0-2.03.91-2.03,2.03v10.4h-9.98v-10.4c0-1.12-.91-2.03-2.03-2.03h-9.45c-1.12,0-2.03.91-2.03,2.03v12.44c0,1.12.91,2.03,2.03,2.03h7.41v10.36h-.13c-1.12,0-2.03.91-2.03,2.03v21.15l-.94,6.65-1.54.42c-.76.21-1.32.83-1.46,1.6l-1.28,7.07-1.29-7.07c-.14-.77-.71-1.39-1.46-1.6l-1.54-.42-.93-6.65v-21.15c0-1.12-.91-2.03-2.03-2.03h-.13v-12.41c0-1.12-.91-2.03-2.03-2.03h-12.8s-3.86,0-3.86,0c-1.12,0-2.03.91-2.03,2.03v9.67h-16.92v-22.09c0-1.12-.91-2.03-2.03-2.03h-12.71s-2.73,0-2.73,0v4.07h6.98s6.43,0,6.43,0v22.09c0,1.12.91,2.03,2.03,2.03h20.99c1.12,0,2.03-.91,2.03-2.03v-9.67h2.35s10.25,0,10.25,0v12.41c0,1.12.91,2.03,2.03,2.03h.13v19.26c0,.1,0,.19.02.28l1.14,8.11c.11.81.69,1.47,1.48,1.68l1.6.44,3.06,16.83c.18.97,1.02,1.67,2,1.67h0c.98,0,1.82-.7,2-1.67l3.05-16.83,1.6-.44c.78-.21,1.36-.87,1.48-1.67l1.15-8.11c.01-.1.02-.19.02-.29v-19.26h.13c1.12,0,2.03-.91,2.03-2.03v-12.39h9.98v23.1c0,.52.2,1.02.55,1.39l1.96,2.08-.08,27.61-1.01,3c-.21.63-.1,1.32.28,1.85-.93,6.29,2.2,10.78,8.46,12.3v.07c0,1.12.91,2.03,2.03,2.03s2.03-.91,2.03-2.03v-.07c6.29-1.53,9.42-6.04,8.48-12.28.53-.71.56-1.69.02-2.43l-.1-.14.12-21.91,1.4-1.7.31.24.11,20.75-.07.1c-.51.7-.51,1.63-.04,2.33-.87,5.98,2.09,10.25,8.01,11.73,0,1.12.91,2.02,2.03,2.02s2.02-.9,2.03-2.02c5.96-1.49,8.91-5.79,8.02-11.71.48-.7.48-1.64-.04-2.34l-.08-.1v-20.42l1.53-1.85c.3-.36.47-.82.47-1.29v-8.63h31.47l.03.03,8.98-9.1v50.71c0,.73.39,1.4,1.02,1.76.63.36,1.4.36,2.03,0l11.94-6.89c.63-.37,1.02-1.04,1.02-1.78l-.51-61.52h6.54v55.66c0,.73.39,1.4,1.02,1.76.63.37,1.4.37,2.03,0l11.66-6.76c.63-.36,1.01-1.03,1.01-1.76v-48.89h3.47c1.12,0,2.03-.91,2.03-2.03v-5.27h3.24v14.93c0,1.12.91,2.03,2.03,2.03h10.56c1.12,0,2.03-.91,2.03-2.03v-14.95h11.24v-4.07Z" style="fill: #1d1d1b;"/>
      </g>
      <g>
        <polygon points="2.5 208.89 2.5 72.69 123.14 2.89 243.77 72.92 243.77 209.2 123.14 278 2.5 208.89" style="fill: #fff;"/>
        <path d="m123.13,5.78l118.14,68.58v133.39l-118.13,67.37L5,207.44V74.13L123.13,5.78m0-5.78L0,71.24v139.1l123.14,70.53,123.14-70.23V71.48L123.14,0h0Z" style="fill: #1d1d1b;"/>
      </g>
      <g>
        <path d="m67.88,82.97l88.62,60.68-81.62,16.75-61.89-32.34,54.88-45.08m-.22-5L5.79,128.8l68.5,35.8,92.25-18.93-98.88-67.7h0Z" style="fill: #1d1d1b;"/>
        <g>
          <polygon points="81.24 167.98 169.53 150.24 175.63 154.33 85.28 171.62 81.24 167.98" style="fill: #1d1d1b;"/>
          <path d="m169.11,152.37l1.36.91-84.59,16.19-.34-.31,83.57-16.79m.84-4.25l-93.01,18.69,7.73,6.96,96.1-18.39-10.83-7.26h0Z" style="fill: #1d1d1b;"/>
        </g>
        <path d="m125.08,57.11l38.66,75.9-70.96-48.15,32.31-27.75m1.25-6.35l-40.13,34.47,88.16,59.81-48.03-94.29h0Z" style="fill: #1d1d1b;"/>
        <path d="m161.77,56.11l8.53,67.15-26.27-54.45,17.74-12.7m3.12-7.16l-25.93,18.56,38.4,79.59-12.47-98.15h0Z" style="fill: #1d1d1b;"/>
        <path d="m213.95,76.48l-.57,1.24.41-1.19.17-.06m7.58-6.9l-10.9,3.83-26.81,78.08,37.71-81.91h0Z" style="fill: #1d1d1b;"/>
        <path d="m202.8,69.43l-20.18,61.24-6-53.83,26.18-7.41m6.15-5.9l-36.68,10.39,8.41,75.44,28.27-85.82h0Z" style="fill: #1d1d1b;"/>
      </g>
      <g>
        <path d="m41.3,135.05l15.14,9.42c8.88,4.61,12.86-1.61,10.65-3.41l-16.08-10.75c-.24-.16-.23-.54.02-.69l2.96-1.74c.25-.15.57-.14.81.02l17.36,11.32c.93.86,1.97,1.65,1.55,4.52-.51,3.54-9.94,9.27-19.93,4.1l-16.17-10.59c-.2-.13-.2-.44.01-.57l2.82-1.65c.26-.15.58-.15.84.01Z" style="fill: #1d1d1b;"/>
        <path d="m93.34,125.66c-5.72-5.34-14.28-8.12-20.93-6.92-.3.06-.59.16-.87.3l-10.49,5.11c-.31.14-.34.59-.05.78l21.73,14.39c.33.22.75.25,1.11.06,1.87-.99,7.83-4.17,9.1-4.93,3.18-2.15,3.77-5.98.41-8.79Zm-4.91,6.78c-.69.73-3.31,1.72-4.58,2.37-.25.12-.53.1-.76-.04l-14.81-9.47c-.2-.12-.18-.42.03-.51l3.65-1.95c1.87-.71,2.86-.73,3.07-.77,4.54-.79,18.08,5.39,13.41,10.38Z" style="fill: #1d1d1b;"/>
        <path d="m109.45,125.35l-7.75-4.92c2.95-.79,4.99-2.33,6.2-4.52.14-.24.24-.51.26-.78.32-4.83-10.1-8.84-15.05-7.4-3.57,1.11-6.48,2.74-9.85,5.06-.18.12-.19.4,0,.52l22.05,14.6c.22.14.5.15.72.03,1.33-.72,2.48-1.44,3.44-2.14.16-.11.14-.35-.02-.46Zm-10.81-7.19c-.12.06-.26.05-.37-.03l-7.68-5.08c-.09-.06-.09-.2,0-.26,3.16-2.34,6.1-2.55,8.86-.94,4.18,2.32,3.51,4.4-.8,6.31Z" style="fill: #1d1d1b;"/>
      </g>
      <text transform="translate(33.55 215.25)" style="fill: #1d1d1b; font-family: UniversLTStd, &apos;Univers LT Std&apos;; font-size: 40px;"><tspan x="0" y="0">K</tspan><tspan x="26.68" y="0" style="letter-spacing: -.07em;">AT</tspan><tspan x="74" y="0">A</tspan><tspan x="102.88" y="0" style="letter-spacing: -.05em;">L</tspan><tspan x="123.12" y="0" style="letter-spacing: 0em;">OG</tspan></text>
    </g>
  </g>
</svg>