<?xml version="1.0" encoding="UTF-8"?>
<svg id="Ebene_2" xmlns="http://www.w3.org/2000/svg" viewBox="0 0 500 350">
  <defs>
    <style>
      .cls-1 {
        stroke-linecap: round;
        stroke-width: 5px;
      }

      .cls-1, .cls-2 {
        fill: none;
        stroke: #000;
        stroke-miterlimit: 10;
      }

      .cls-3 {
        fill: #fff;
      }

      .cls-2 {
        stroke-width: 4px;
      }
    </style>
  </defs>
  <g id="Ebene_3">
    <g id="Arbeiten">
      <rect class="cls-3" width="500" height="350"/>
      <g id="Arbeiten-2" data-name="Arbeiten">
        <path d="M382,152.42v9.16c0,2.44-1.98,4.42-4.42,4.42h-9.08v124.58c0,2.44-1.98,4.42-4.42,4.42h-6.16c-2.44,0-4.42-1.98-4.42-4.42v-124.58h-207v124.58c0,2.44-1.98,4.42-4.42,4.42h-6.16c-2.44,0-4.42-1.98-4.42-4.42v-124.58h-9.08c-2.44,0-4.42-1.98-4.42-4.42v-9.16c0-2.44,1.98-4.42,4.42-4.42h255.16c2.44,0,4.42,1.98,4.42,4.42Z"/>
        <rect class="cls-2" x="287" y="158.5" width="67" height="114.5" rx="8.35" ry="8.35"/>
        <line class="cls-2" x1="353.75" y1="237" x2="286.75" y2="237"/>
        <line class="cls-2" x1="353.75" y1="201" x2="288.75" y2="201"/>
        <line class="cls-1" x1="308" y1="180" x2="333" y2="180"/>
        <line class="cls-1" x1="308" y1="216.25" x2="333" y2="216.25"/>
        <line class="cls-1" x1="308" y1="252.5" x2="333" y2="252.5"/>
        <g>
          <rect class="cls-2" x="178.38" y="55" width="115" height="68" rx="2.98" ry="2.98"/>
          <line class="cls-2" x1="178.38" y1="111.81" x2="293.38" y2="111.81"/>
          <rect class="cls-2" x="225.38" y="125" width="21" height="13"/>
          <rect class="cls-2" x="206.88" y="138" width="58" height="13" rx="3.52" ry="3.52"/>
        </g>
      </g>
    </g>
  </g>
</svg>