<?xml version="1.0" encoding="UTF-8"?>
<svg id="Ebene_2" xmlns="http://www.w3.org/2000/svg" viewBox="0 0 500 350">
  <defs>
    <style>
      .cls-1 {
        fill: #fff;
      }

      .cls-2, .cls-3, .cls-4, .cls-5, .cls-6 {
        fill: none;
        stroke: #000;
      }

      .cls-2, .cls-4, .cls-5 {
        stroke-miterlimit: 10;
      }

      .cls-2, .cls-6 {
        stroke-width: 2px;
      }

      .cls-3 {
        stroke-linecap: round;
      }

      .cls-3, .cls-5 {
        stroke-width: 3px;
      }

      .cls-3, .cls-6 {
        stroke-linejoin: round;
      }

      .cls-4 {
        stroke-width: 4px;
      }
    </style>
  </defs>
  <g id="Ebene_3">
    <g id="Bauen">
      <rect class="cls-1" width="500" height="350"/>
      <g id="Bauen-2" data-name="Bauen">
        <rect class="cls-4" x="111.85" y="84.8" width="263" height="33" rx="4.55" ry="4.55"/>
        <path d="M142.15,124.3c.11,0,.19.09.19.19v19.61c0,.11-.09.19-.19.19h-25.61c-.11,0-.19-.09-.19-.19v-19.61c0-.11.09-.19.19-.19h25.61M142.15,120.3h-25.61c-2.32,0-4.19,1.88-4.19,4.19v19.61c0,2.32,1.88,4.19,4.19,4.19h25.61c2.32,0,4.19-1.88,4.19-4.19v-19.61c0-2.32-1.88-4.19-4.19-4.19h0Z"/>
        <rect class="cls-4" x="159.85" y="117.8" width="33.5" height="167.5"/>
        <path d="M205.99,289.3c.2,0,.35.16.35.35v21.29c0,.2-.16.35-.35.35h-58.29c-.2,0-.35-.16-.35-.35v-21.29c0-.2.16-.35.35-.35h58.29M205.99,285.3h-58.29c-2.4,0-4.35,1.95-4.35,4.35v21.29c0,2.41,1.95,4.35,4.35,4.35h58.29c2.41,0,4.35-1.95,4.35-4.35v-21.29c0-2.41-1.95-4.35-4.35-4.35h0Z"/>
        <rect class="cls-5" x="267.35" y="253.3" width="86" height="60" rx="3.56" ry="3.56"/>
        <path class="cls-5" d="M300.99,277.3h19.5c2.68,0,4.85,2.18,4.85,4.85v31.15h-30v-30.35c0-3.12,2.53-5.65,5.65-5.65Z"/>
        <line class="cls-5" x1="310.35" y1="203.7" x2="310.35" y2="253.3"/>
        <line class="cls-5" x1="275.35" y1="222.3" x2="275.35" y2="253.3"/>
        <line class="cls-5" x1="342.69" y1="222.3" x2="342.69" y2="253.3"/>
        <line class="cls-5" x1="258.35" y1="234.3" x2="361.65" y2="234.3"/>
        <path d="M317.31,158.34l-12.31,12.31c-.85.85-.69,2.26.33,2.9l68.17,42.86c.78.49,1.8.34,2.4-.36l11.8-13.59c.75-.87.55-2.21-.43-2.81l-67.66-41.58c-.73-.45-1.68-.34-2.29.27Z"/>
        <line class="cls-2" x1="353.35" y1="136.73" x2="353.35" y2="178.81"/>
        <path class="cls-5" d="M342.85,117.8h19v15.77c0,1.78-1.45,3.23-3.23,3.23h-11.56c-2.32,0-4.21-1.89-4.21-4.21v-14.79h0Z"/>
        <path class="cls-5" d="M151.35,75.3h37.63c4.07,0,7.37,3.3,7.37,7.37v1.63h-45v-9h0Z"/>
        <polyline class="cls-5" points="122.43 83.3 176.85 34.7 332.23 83.8"/>
        <polyline class="cls-3" points="188.98 74.3 176.85 34.7 165.4 74.3"/>
        <polyline class="cls-2" points="133.85 86.8 133.85 104.22 133.85 117.8"/>
        <polyline class="cls-2" points="154.35 86.8 154.35 104.22 154.35 117.8"/>
        <polyline class="cls-2" points="200.35 86.8 200.35 104.22 200.35 117.8"/>
        <polyline class="cls-6" points="200.35 116.22 229.35 86.8 229.35 104.22 229.35 117.8 258.35 86.8 258.35 104.22 258.35 117.8 286.35 86.8 286.35 104.22 286.35 117.8 314.35 86.8 314.35 104.22 314.35 117.8"/>
        <polyline class="cls-2" points="314.35 115.44 343.35 86.8 343.35 104.22 343.35 117.8"/>
        <line class="cls-6" x1="343.35" y1="116.22" x2="372.49" y2="86.8"/>
        <path class="cls-2" d="M200.35,97.64h-24.31c-2.04,0-3.69-1.65-3.69-3.69v-9.15"/>
        <polyline class="cls-6" points="193.35 117.8 159.85 150.86 193.35 150.86 159.85 179.9 193.35 179.9 159.85 215.31 193.35 215.31 159.85 249.77 193.35 249.77 159.85 285.3"/>
      </g>
    </g>
  </g>
</svg>