<?xml version="1.0" encoding="UTF-8"?>
<svg id="Ebene_2" xmlns="http://www.w3.org/2000/svg" viewBox="0 0 500 350">
  <defs>
    <style>
      .cls-1, .cls-2 {
        stroke: #000;
        stroke-miterlimit: 10;
        stroke-width: 3px;
      }

      .cls-3 {
        fill: #fff;
      }

      .cls-2 {
        fill: none;
      }
    </style>
  </defs>
  <g id="Ebene_3">
    <g id="Energie">
      <rect class="cls-3" width="500" height="350"/>
      <g id="Energie-2" data-name="Energie">
        <path class="cls-2" d="M371,175c0,66.83-54.17,121-121,121-59.55,0-109.05-43.01-119.13-99.67-1.23-6.92-1.87-14.05-1.87-21.33,0-66.83,54.17-121,121-121s121,54.17,121,121Z"/>
        <path class="cls-1" d="M393,175c0,78.98-64.02,143-143,143-70.38,0-128.87-50.83-140.79-117.79l21.66-3.88c10.08,56.66,59.58,99.67,119.13,99.67,66.83,0,121-54.17,121-121s-54.17-121-121-121v-22c78.98,0,143,64.02,143,143Z"/>
        <path class="cls-2" d="M371,175c0,66.83-54.17,121-121,121-59.55,0-109.05-43.01-119.13-99.67l-21.66,3.88c-1.45-8.18-2.21-16.61-2.21-25.21,0-78.98,64.02-143,143-143v22c66.83,0,121,54.17,121,121Z"/>
        <polygon class="cls-1" points="286.5 94.5 244.5 94.5 225.5 154.5 243.5 154.5 228.5 263.5 291.5 154.5 265.5 154.5 286.5 94.5"/>
      </g>
    </g>
  </g>
</svg>