<?xml version="1.0" encoding="UTF-8"?>
<svg id="Ebene_2" data-name="Ebene 2" xmlns="http://www.w3.org/2000/svg" viewBox="0 0 253.76 251.33">
  <g id="Ebene_3" data-name="Ebene 3">
    <g id="Gewerbe_Handwerk" data-name="Gewerbe / Handwerk">
      <path d="m220.8,3.81l-23.35,22.9v14.84l14,14.16h15.94l24.06-23c3,34-15,67-61,58l-98,97c10,46-23,68-61,60l23-23,2-14-14-14h-15l-24,24c-8-35,18-72,61-60l99-99C150.44,14.71,190.44-4.29,220.8,3.81Z" style="fill: none; stroke: #000; stroke-linecap: round; stroke-linejoin: round; stroke-width: 4px;"/>
      <polyline points="105.08 120.07 38.86 51.71 24.44 51.71 3.44 16.71 17.57 2 53.18 23.88 54.44 39.71 121.92 103.23" style="fill: none; stroke: #000; stroke-linecap: round; stroke-linejoin: round; stroke-width: 4px;"/>
      <path d="m155.94,124.86l87.93,82.44c2.13,1.99,3.77,4.48,4.64,7.26,5.69,18.11-9.43,38.76-32.84,31.7-2.62-.79-4.95-2.32-6.8-4.32l-81.97-88.34" style="fill: none; stroke: #000; stroke-linecap: round; stroke-linejoin: round; stroke-width: 4px;"/>
      <line x1="92.44" y1="158.71" x2="160.44" y2="91.71" style="fill: none; stroke: #000; stroke-linecap: round; stroke-linejoin: round; stroke-width: 5px;"/>
      <line x1="174.44" y1="173.71" x2="221.44" y2="220.71" style="fill: none; stroke: #000; stroke-linecap: round; stroke-linejoin: round; stroke-width: 5px;"/>
      <line x1="141.27" y1="169.09" x2="171.02" y2="139.01" style="fill: none; stroke: #000; stroke-linecap: round; stroke-linejoin: round; stroke-width: 5px;"/>
    </g>
  </g>
</svg>