<?xml version="1.0" encoding="UTF-8"?>
<svg id="Ebene_2" xmlns="http://www.w3.org/2000/svg" viewBox="0 0 500 350">
  <defs>
    <style>
      .cls-1 {
        stroke-linecap: round;
      }

      .cls-1, .cls-2, .cls-3 {
        fill: none;
        stroke: #000;
        stroke-miterlimit: 10;
      }

      .cls-1, .cls-3 {
        stroke-width: 3px;
      }

      .cls-4 {
        font-family: MyriadPro-Regular, 'Myriad Pro';
        font-size: 90.41px;
      }

      .cls-5 {
        fill: #fff;
      }

      .cls-2 {
        stroke-width: 4px;
      }
    </style>
  </defs>
  <g id="Ebene_3">
    <g id="Handel">
      <rect class="cls-5" width="500" height="350"/>
      <g id="Handel-2" data-name="Handel">
        <ellipse class="cls-3" cx="137.84" cy="76.5" rx="47.49" ry="47.37"/>
        <text class="cls-4" transform="translate(110.34 106.7)"><tspan x="0" y="0">€</tspan></text>
        <g>
          <g>
            <path d="M90.35,238.37c23.81-78.62,75.94-128.45,160.2-131.74,0,0-2.2,2.29-2.2,2.29l-.11-30.19-.02-4.35c21.61,13.55,58.38,36.6,79.95,50.2-19.85,12.08-56.46,34.26-76.37,46.26,0,0-3.42,2.07-3.42,2.07l.02-3.98.13-28.65,2.18,2.11c-46.91.79-86.76,20.93-111.48,61.44-7.88,12.69-13.97,26.44-18.87,40.54,4.34-14.35,10.03-28.33,17.61-41.31,24.03-42.21,64.72-63.42,112.62-64.9,0,0,2.17-.09,2.17-.09v2.2s.14,28.64.14,28.64l-3.4-1.91c18.07-11.15,54.59-33.51,72.72-44.58,0,0-.03,4.2-.03,4.2-18.19-11.39-54.66-34.43-72.8-45.87,0,0,3.68-2.03,3.68-2.03l-.11,30.19v2.21s-2.2.08-2.2.08c-83.36,2.68-133.98,50.68-160.38,127.16h0Z"/>
            <path d="M409.65,120.72c-23.81,78.62-75.94,128.45-160.2,131.74,0,0,2.2-2.29,2.2-2.29l.11,30.19.02,4.35c-21.61-13.55-58.38-36.6-79.95-50.2,19.85-12.08,56.46-34.26,76.37-46.26,0,0,3.42-2.07,3.42-2.07l-.02,3.98-.13,28.64-2.18-2.11c46.91-.79,86.76-20.93,111.48-61.44,7.87-12.69,13.97-26.44,18.87-40.54-4.34,14.35-10.03,28.33-17.61,41.31-24.02,42.21-64.72,63.42-112.62,64.9,0,0-2.17.09-2.17.09v-2.2s-.14-28.65-.14-28.65l3.4,1.91c-18.07,11.15-54.59,33.51-72.72,44.58,0,0,.03-4.2.03-4.2,18.19,11.39,54.66,34.42,72.8,45.87,0,0-3.68,2.03-3.68,2.03l.11-30.19v-2.21s2.2-.08,2.2-.08c83.36-2.68,133.98-50.68,160.38-127.16h0Z"/>
          </g>
          <g>
            <g>
              <path class="cls-2" d="M405,263.5h-86.69c-2.56,0-4.64,2.08-4.64,4.64v6.16c0,2.56,2.08,4.64,4.64,4.64h86.69c2.56,0,4.64-2.08,4.64-4.64v-6.16c0-2.56-2.08-4.64-4.64-4.64Z"/>
              <path class="cls-2" d="M320.33,278.94l6.7,39.4c.25,1.46,1.51,2.52,2.99,2.52h64.51c1.54,0,2.86-1.11,3.12-2.63l6.67-39.29"/>
            </g>
            <line class="cls-1" x1="334.07" y1="288.32" x2="349.6" y2="288.32"/>
            <line class="cls-1" x1="331.87" y1="303.21" x2="347.39" y2="303.21"/>
            <line class="cls-1" x1="354.48" y1="293.84" x2="370.01" y2="293.84"/>
            <line class="cls-1" x1="377.1" y1="303.21" x2="392.63" y2="303.21"/>
            <line class="cls-1" x1="374.89" y1="288.32" x2="390.42" y2="288.32"/>
            <line class="cls-1" x1="341.25" y1="311.49" x2="356.77" y2="311.49"/>
            <line class="cls-1" x1="366.62" y1="311.49" x2="382.14" y2="311.49"/>
            <path class="cls-2" d="M342.82,263.5l14.97-26.48c1.65-2.21,7.17-2.21,8.83,0l14.97,26.48"/>
          </g>
        </g>
      </g>
    </g>
  </g>
</svg>