<?xml version="1.0" encoding="UTF-8"?>
<svg id="Ebene_2" data-name="Ebene 2" xmlns="http://www.w3.org/2000/svg" viewBox="0 0 322.79 295.23">
  <g id="Ebene_3" data-name="Ebene 3">
    <g id="Handel">
      <ellipse cx="48.99" cy="48.87" rx="47.49" ry="47.37" style="fill: none; stroke: #000; stroke-miterlimit: 10; stroke-width: 3px;"/>
      <path d="m66.33,76.27c-2.8,1.9-7.5,3.8-13.47,3.8-7.32,0-13.83-2.8-18.35-8.05-3.44-3.8-5.7-9.04-6.51-15.55h-5.61v-4.43h5.15v-1.36c0-1.45.09-2.8.18-4.07h-5.33v-4.52h5.97c1.08-6.33,3.8-11.57,7.41-15.28,4.61-4.79,10.49-7.5,17.9-7.5,5.33,0,9.49,1.54,12.02,2.89l-1.81,5.97c-2.26-1.36-6.06-2.53-10.13-2.53-4.88,0-8.86,1.72-11.93,4.97-2.71,2.62-4.52,6.69-5.42,11.48h25.22v4.52h-26.04c-.09,1.18-.18,2.53-.18,3.8v1.63h26.22v4.43h-25.59c.72,5.24,2.53,9.13,4.97,11.84,3.34,3.53,7.87,5.24,12.75,5.24s8.95-1.81,11.03-2.98l1.54,5.7Z"/>
      <g>
        <g>
          <path d="m1.5,210.73C25.31,132.11,77.44,82.29,161.7,78.99c0,0-2.2,2.29-2.2,2.29l-.11-30.19s-.02-4.35-.02-4.35c21.61,13.55,58.38,36.6,79.95,50.2-19.85,12.08-56.46,34.26-76.37,46.26,0,0-3.42,2.07-3.42,2.07l.02-3.98s.13-28.65.13-28.65c0,0,2.18,2.11,2.18,2.11-46.91.79-86.76,20.93-111.48,61.44-7.87,12.69-13.97,26.44-18.87,40.54,4.34-14.35,10.03-28.33,17.61-41.31,24.02-42.21,64.72-63.42,112.62-64.9,0,0,2.17-.09,2.17-.09,0,0,0,2.2,0,2.2,0,0,.13,28.64.13,28.64l-3.4-1.91c18.07-11.15,54.59-33.51,72.72-44.58,0,0-.03,4.2-.03,4.2-18.19-11.39-54.66-34.42-72.8-45.87,0,0,3.68-2.03,3.68-2.03,0,0-.11,30.19-.11,30.19v2.21s-2.2.08-2.2.08C78.53,86.26,27.91,134.26,1.5,210.73h0Z"/>
          <path d="m320.79,93.09c-23.81,78.62-75.94,128.45-160.2,131.74,0,0,2.2-2.29,2.2-2.29l.11,30.19s.02,4.35.02,4.35c-21.61-13.55-58.38-36.6-79.95-50.2,19.85-12.08,56.46-34.26,76.37-46.26,0,0,3.42-2.07,3.42-2.07,0,0-.02,3.98-.02,3.98l-.13,28.65s-2.18-2.11-2.18-2.11c46.91-.79,86.76-20.93,111.48-61.44,7.88-12.69,13.97-26.44,18.87-40.54-4.34,14.35-10.03,28.33-17.61,41.31-24.03,42.21-64.72,63.42-112.62,64.9,0,0-2.17.09-2.17.09,0,0,0-2.2,0-2.2l-.13-28.65,3.4,1.91c-18.07,11.15-54.59,33.51-72.72,44.58,0,0,.03-4.2.03-4.2,18.19,11.39,54.66,34.42,72.8,45.87,0,0-3.68,2.03-3.68,2.03l.11-30.19v-2.21s2.2-.08,2.2-.08c83.36-2.68,133.98-50.68,160.38-127.16h0Z"/>
        </g>
        <g>
          <g>
            <path d="m316.15,235.86h-86.69c-2.56,0-4.64,2.08-4.64,4.64v6.16c0,2.56,2.08,4.64,4.64,4.64h86.69c2.56,0,4.64-2.08,4.64-4.64v-6.16c0-2.56-2.08-4.64-4.64-4.64Z" style="fill: none; stroke: #000; stroke-miterlimit: 10; stroke-width: 4px;"/>
            <path d="m231.47,251.31l6.7,39.4c.25,1.46,1.51,2.52,2.99,2.52h64.51c1.54,0,2.86-1.11,3.12-2.63l6.67-39.29" style="fill: none; stroke: #000; stroke-miterlimit: 10; stroke-width: 4px;"/>
          </g>
          <line x1="245.22" y1="260.69" x2="260.74" y2="260.69" style="fill: none; stroke: #000; stroke-linecap: round; stroke-miterlimit: 10; stroke-width: 3px;"/>
          <line x1="243.01" y1="275.58" x2="258.54" y2="275.58" style="fill: none; stroke: #000; stroke-linecap: round; stroke-miterlimit: 10; stroke-width: 3px;"/>
          <line x1="265.63" y1="266.2" x2="281.15" y2="266.2" style="fill: none; stroke: #000; stroke-linecap: round; stroke-miterlimit: 10; stroke-width: 3px;"/>
          <line x1="288.25" y1="275.58" x2="303.77" y2="275.58" style="fill: none; stroke: #000; stroke-linecap: round; stroke-miterlimit: 10; stroke-width: 3px;"/>
          <line x1="286.04" y1="260.69" x2="301.56" y2="260.69" style="fill: none; stroke: #000; stroke-linecap: round; stroke-miterlimit: 10; stroke-width: 3px;"/>
          <line x1="252.39" y1="283.86" x2="267.92" y2="283.86" style="fill: none; stroke: #000; stroke-linecap: round; stroke-miterlimit: 10; stroke-width: 3px;"/>
          <line x1="277.76" y1="283.86" x2="293.29" y2="283.86" style="fill: none; stroke: #000; stroke-linecap: round; stroke-miterlimit: 10; stroke-width: 3px;"/>
          <path d="m253.97,235.86l14.97-26.48c1.65-2.21,7.17-2.21,8.83,0l14.97,26.48" style="fill: none; stroke: #000; stroke-miterlimit: 10; stroke-width: 4px;"/>
        </g>
      </g>
    </g>
  </g>
</svg>