<?xml version="1.0" encoding="UTF-8"?>
<svg id="Ebene_2" xmlns="http://www.w3.org/2000/svg" viewBox="0 0 500 350">
  <defs>
    <style>
      .cls-1, .cls-2, .cls-3 {
        stroke: #000;
        stroke-miterlimit: 10;
      }

      .cls-1, .cls-3 {
        fill: none;
      }

      .cls-4 {
        fill: #fff;
      }

      .cls-3 {
        stroke-linecap: round;
        stroke-width: 7px;
      }
    </style>
  </defs>
  <g id="Ebene_3">
    <g id="Informations-Technologie">
      <rect class="cls-4" width="500" height="350"/>
      <g id="Informationstechnologie">
        <path class="cls-2" d="M325.36,38h-150.71c-12.79,0-23.15,10.36-23.15,23.15v227.7c0,12.79,10.36,23.15,23.15,23.15h150.71c12.78,0,23.14-10.36,23.14-23.15V61.15c0-12.79-10.36-23.15-23.14-23.15ZM266,300.52c0,1.92-1.55,3.48-3.48,3.48h-25.03c-1.93,0-3.49-1.56-3.49-3.48v-2.04c0-1.92,1.56-3.48,3.49-3.48h25.03c1.93,0,3.48,1.56,3.48,3.48v2.04ZM334.52,261.85c0,12.79-10.36,23.15-23.15,23.15h-122.74c-12.78,0-23.14-10.36-23.14-23.15V76.15c0-12.79,10.36-23.15,23.14-23.15h122.74c12.79,0,23.15,10.36,23.15,23.15v185.7Z"/>
        <path class="cls-3" d="M184.88,126.31c36.42-30.24,98.7-28.52,130.24,2.36"/>
        <path class="cls-3" d="M203.03,145.74c28.61-20.7,69.54-18.39,93.93,5.2"/>
        <path class="cls-3" d="M220.59,166c18.85-10.76,41.47-9.67,58.82,2.62"/>
        <circle cx="250" cy="198.5" r="15"/>
        <path class="cls-1" d="M332.51,76.15v185.7c0,12.79-10.36,23.15-23.15,23.15h-122.74c-12.78,0-23.14-10.36-23.14-23.15V76.15c0-12.79,10.36-23.15,23.14-23.15h122.74c12.79,0,23.15,10.36,23.15,23.15Z"/>
        <path class="cls-1" d="M332.51,76.15v185.7c0,12.79-10.36,23.15-23.15,23.15h-122.74c-12.78,0-23.14-10.36-23.14-23.15V76.15c0-12.79,10.36-23.15,23.14-23.15h122.74c12.79,0,23.15,10.36,23.15,23.15Z"/>
      </g>
    </g>
  </g>
</svg>