<?xml version="1.0" encoding="UTF-8"?>
<svg id="Ebene_2" xmlns="http://www.w3.org/2000/svg" viewBox="0 0 500 350">
  <defs>
    <style>
      .cls-1 {
        fill: #fff;
      }

      .cls-2 {
        stroke-width: 5px;
      }

      .cls-2, .cls-3, .cls-4, .cls-5 {
        fill: none;
        stroke: #000;
        stroke-linejoin: round;
      }

      .cls-2, .cls-4, .cls-5 {
        stroke-linecap: round;
      }

      .cls-3 {
        stroke-linecap: square;
      }

      .cls-3, .cls-5 {
        stroke-width: 7px;
      }

      .cls-4 {
        stroke-width: 6px;
      }
    </style>
  </defs>
  <g id="Ebene_3">
    <g id="Kultur">
      <rect class="cls-1" width="500" height="350"/>
      <g id="Kultur-2" data-name="Kultur">
        <path class="cls-2" d="M82.62,96.27c37.57,8.74,73.8-1.75,109-27,27.65,70.64,32.75,125-.8,151.44-7.22,5.69-16.26,8.69-25.44,8.52-53.14-.98-69.38-64.54-82.76-132.96Z"/>
        <g>
          <path d="M112.12,153.77c8.74-5.51,21.72-7.63,31.76-5.11-8.73,5.54-21.72,7.6-31.76,5.11h0Z"/>
          <path d="M162.12,142.77c8.74-5.51,21.72-7.63,31.76-5.11-8.73,5.54-21.72,7.6-31.76,5.11h0Z"/>
        </g>
        <path d="M131.12,185.77c17.13,4.19,37.35,9.74,52.47-2.26,4.77-3.61,8.74-8.48,12.53-13.74-1.52,6.3-4.6,12.38-9.39,17.26-14.95,15.47-39.96,10.08-55.61-1.26h0Z"/>
        <path d="M140.12,304.77c113.54-116.56,226.99-233.05,223-250,.47-6.51-.99-13.34-3.64-20.35-1.29-3.42,1.74-6.95,5.28-6.03,19.66,5.12,54.68,46.66,52.54,57.47-.23,1.16-1.52,1.78-2.64,1.38-12.49-4.39-23.24-4.66-32.53-1.47-37.83,25.02-122.84,109.66-207.84,194.29-10.16,10.12-20.32,20.23-30.4,30.25,1.74,2.73,1.53,4.9,0,6.71-1.28,2.07-3.27,3.6-5.76,4.76l-10.12-10.95c1.11-1.7,3.23-3.02,6.12-4.05,1.27-1.99,3.31-2.6,6-2Z"/>
        <path class="cls-4" d="M338.62,118.27c10-3,30.5,17.5,26.5,26.5-1.78,5.35-9.12,15.45-14.94,16.89-.8.2-.56-3.39-.96,1.8-.16,2.1-.49,4.47-3.09,7.31l-55.98,57.47c-.54.55-1.42.56-1.97.02l-30.89-30.38"/>
        <path class="cls-5" d="M169.12,281.77c-7.5,14.08,21,42,34,31l63-60-32.27-31.85"/>
        <line class="cls-3" x1="246.33" y1="208.62" x2="278.12" y2="240.77"/>
        <path class="cls-4" d="M228.23,288.85c-5.05,3.87-10.97-2.93-8.21-7.91.06-.12.15-.22.24-.32l120.64-123.63c.15-.15.35-.22.52-.34,3.2-2.38,6.2-1.38,8.2,5.62"/>
      </g>
    </g>
  </g>
</svg>