<?xml version="1.0" encoding="UTF-8"?>
<svg id="Ebene_2" data-name="Ebene 2" xmlns="http://www.w3.org/2000/svg" viewBox="0 0 333.97 212.5">
  <g id="Ebene_3" data-name="Ebene 3">
    <g id="Landwirtschaft">
      <path d="m26.12,197.92c3.42-11.86,9.78-19.32,23.89-15.23.58.17,1.14.41,1.68.68,16.62,8.4,34.38,10.12,54.18-.09.42-.21.81-.46,1.2-.73,7.12-4.97,16.71-8.4,28.07-10.73,3.85-.79,7.9-1.45,12.13-2,1.24-.16,2.5-.08,3.72.2,10.4,2.44,18.16,6.9,24.08,12.79,1.43,1.42,3.21,2.46,5.19,2.85,12.31,2.42,25.67,1.16,39.73-2.58.33-.09.67-.16,1.01-.22,12.88-2.07,23.99-.98,33.42,3.1,1.47.64,3.06.95,4.65.87,16.19-.86,31.38-3.25,44.78-8.39,1.51-.58,3.13-.8,4.73-.6,11.95,1.5,19.5,8.33,23.36,19.61,2.27,6.65-2.78,13.54-9.8,13.54H36.06c-6.82,0-11.83-6.53-9.94-13.08Z" style="fill: none; stroke: #000; stroke-miterlimit: 10; stroke-width: 3px;"/>
      <g>
        <path d="m102.62,69.11c-12.82,16.91-21.38,36.53-25.98,57.13-4.68,20.53-5.78,41.71-5.21,62.73,0,0-4.82-.04-4.82-.04.82-14.16-.96-28.58-6.91-41.55-5.96-13.15-15.75-24.12-27.2-32.87,19.23,11.13,33.69,30.34,37.46,52.46,1.34,7.33,1.82,14.81,1.46,22.22,0,0-4.82-.04-4.82-.04-1.92-42.23,5.74-88.49,36.01-120.05h0Z"/>
        <path d="m53.03,141.09c-13.14,12.76-29.01,13.39-39.38-2.99-4.2-7.92-7.02-16.53-9.37-25.1C1.85,104.06.06,94.94,0,85.62c17.54-3.59,39.38-4.83,53.31,8.62,4.4,4.39,8.03,9.71,9.62,15.8,2.16,7.86.49,16.48-3.14,23.59,0,0-.47-.18-.47-.18.95-3.79,1.6-7.6,1.67-11.37.43-11.25-6.32-21.39-15.48-27.37-6.07-3.86-13.41-5.8-20.9-6.58-7.59-.77-15.3-.45-22.94.1,0,0,1.24-1.38,1.24-1.38-1.39,12.99,2,26.18,8.16,37.61,3.81,6.91,6.88,13.82,13.04,18.74,8.91,7.13,19.82,2.62,28.62-2.52,0,0,.3.4.3.4h0Z"/>
        <path d="m73.35,107.61c-11.55-20.44-16.63-46.17,2.84-63.65,18.45-13.1,42.4-13.83,64.09-11.19,3.49,21.75.59,44.09-4.41,65.35-1.12,5.63-3.8,11.07-7.93,15.08-5.26,5.7-12.26,10.15-20.08,11.08-9.04,1.04-17.84-2.69-25.06-7.87,0,0,.26-.43.26-.43,3.46,1.63,7.32,3.44,11.04,4.27,6.1,1.66,12.88,1.48,18.53-1.1,6.55-3.07,12.49-8.77,15.87-15.2,1.1-2.17,1.7-4.66,2.19-7.04,1.18-5.16,2.27-10.33,3.25-15.52,2.98-15.52,4.57-31.36,3.65-47.17,0,0,1.2,1.26,1.2,1.26-5.21-1.03-10.48-1.85-15.79-2.15-10.53-.62-21.41.82-31,5.33-4.48,1.96-10.01,5.75-13.02,8.21-7.57,7.88-12,17.39-11.93,28.48-.07,11.06,3.24,21.64,6.76,32.07,0,0-.46.2-.46.2h0Z"/>
      </g>
      <g>
        <path d="m254.17,55.08c.14-10.92,2.14-19.24,8.57-21.31,5.28-.05,8.91-4.74,12.11-10.66.75,7.97.67,15.4-2.42,20.84-3.39,7.27-11.14,3.88-18.27,11.13Z"/>
        <path d="m254.17,78.58c.14-10.92,2.14-19.24,8.57-21.31,5.28-.05,8.91-4.74,12.11-10.66.75,7.97.67,15.4-2.42,20.84-3.39,7.27-11.14,3.88-18.27,11.13Z"/>
        <path d="m254.17,102.08c.14-10.92,2.14-19.24,8.57-21.31,5.28-.05,8.91-4.74,12.11-10.66.75,7.97.67,15.4-2.42,20.84-3.39,7.27-11.14,3.88-18.27,11.13Z"/>
        <path d="m254.17,125.58c.14-10.92,2.14-19.24,8.57-21.31,5.28-.05,8.91-4.74,12.11-10.66.75,7.97.67,15.4-2.42,20.84-3.39,7.27-11.14,3.88-18.27,11.13Z"/>
        <path d="m254.17,149.08c.14-10.92,2.14-19.24,8.57-21.31,5.28-.05,8.91-4.74,12.11-10.66.75,7.97.67,15.4-2.42,20.84-3.39,7.27-11.14,3.88-18.27,11.13Z"/>
        <path d="m253.45,55.08c-.14-10.92-2.14-19.24-8.57-21.31-5.28-.05-8.91-4.74-12.11-10.66-.75,7.97-.67,15.4,2.42,20.84,3.39,7.27,11.14,3.88,18.27,11.13Z"/>
        <path d="m253.45,78.58c-.14-10.92-2.14-19.24-8.57-21.31-5.28-.05-8.91-4.74-12.11-10.66-.75,7.97-.67,15.4,2.42,20.84,3.39,7.27,11.14,3.88,18.27,11.13Z"/>
        <path d="m253.45,102.08c-.14-10.92-2.14-19.24-8.57-21.31-5.28-.05-8.91-4.74-12.11-10.66-.75,7.97-.67,15.4,2.42,20.84,3.39,7.27,11.14,3.88,18.27,11.13Z"/>
        <path d="m253.45,125.58c-.14-10.92-2.14-19.24-8.57-21.31-5.28-.05-8.91-4.74-12.11-10.66-.75,7.97-.67,15.4,2.42,20.84,3.39,7.27,11.14,3.88,18.27,11.13Z"/>
        <path d="m253.45,149.08c-.14-10.92-2.14-19.24-8.57-21.31-5.28-.05-8.91-4.74-12.11-10.66-.75,7.97-.67,15.4,2.42,20.84,3.39,7.27,11.14,3.88,18.27,11.13Z"/>
        <path d="m253.45,36.76c-4.32-4.31-7.41-9.8-7.42-18.26-.28-6.45,2.45-12.59,7.42-18.51,4.08,6.06,6.86,12.14,6.67,18.24-.02.5,0,1,.03,1.5.51,6.67-2.43,12.09-6.7,17.03Z"/>
        <line x1="253.45" y1="151.06" x2="253.45" y2="185.82" style="fill: none; stroke: #000; stroke-miterlimit: 10; stroke-width: 4px;"/>
      </g>
      <g>
        <path d="m302.91,55.08c.14-10.92,2.14-19.24,8.57-21.31,5.28-.05,8.91-4.74,12.11-10.66.75,7.97.67,15.4-2.42,20.84-3.39,7.27-11.14,3.88-18.27,11.13Z"/>
        <path d="m302.91,78.58c.14-10.92,2.14-19.24,8.57-21.31,5.28-.05,8.91-4.74,12.11-10.66.75,7.97.67,15.4-2.42,20.84-3.39,7.27-11.14,3.88-18.27,11.13Z"/>
        <path d="m302.91,102.08c.14-10.92,2.14-19.24,8.57-21.31,5.28-.05,8.91-4.74,12.11-10.66.75,7.97.67,15.4-2.42,20.84-3.39,7.27-11.14,3.88-18.27,11.13Z"/>
        <path d="m302.91,125.58c.14-10.92,2.14-19.24,8.57-21.31,5.28-.05,8.91-4.74,12.11-10.66.75,7.97.67,15.4-2.42,20.84-3.39,7.27-11.14,3.88-18.27,11.13Z"/>
        <path d="m302.91,149.08c.14-10.92,2.14-19.24,8.57-21.31,5.28-.05,8.91-4.74,12.11-10.66.75,7.97.67,15.4-2.42,20.84-3.39,7.27-11.14,3.88-18.27,11.13Z"/>
        <path d="m302.19,55.08c-.14-10.92-2.14-19.24-8.57-21.31-5.28-.05-8.91-4.74-12.11-10.66-.75,7.97-.67,15.4,2.42,20.84,3.39,7.27,11.14,3.88,18.27,11.13Z"/>
        <path d="m302.19,78.58c-.14-10.92-2.14-19.24-8.57-21.31-5.28-.05-8.91-4.74-12.11-10.66-.75,7.97-.67,15.4,2.42,20.84,3.39,7.27,11.14,3.88,18.27,11.13Z"/>
        <path d="m302.19,102.08c-.14-10.92-2.14-19.24-8.57-21.31-5.28-.05-8.91-4.74-12.11-10.66-.75,7.97-.67,15.4,2.42,20.84,3.39,7.27,11.14,3.88,18.27,11.13Z"/>
        <path d="m302.19,125.58c-.14-10.92-2.14-19.24-8.57-21.31-5.28-.05-8.91-4.74-12.11-10.66-.75,7.97-.67,15.4,2.42,20.84,3.39,7.27,11.14,3.88,18.27,11.13Z"/>
        <path d="m302.19,149.08c-.14-10.92-2.14-19.24-8.57-21.31-5.28-.05-8.91-4.74-12.11-10.66-.75,7.97-.67,15.4,2.42,20.84,3.39,7.27,11.14,3.88,18.27,11.13Z"/>
        <path d="m302.19,36.76c-4.32-4.31-7.41-9.8-7.42-18.26-.28-6.45,2.45-12.59,7.42-18.51,4.08,6.06,6.86,12.14,6.67,18.24-.02.5,0,1,.03,1.5.51,6.67-2.43,12.09-6.7,17.03Z"/>
        <line x1="302.19" y1="151.06" x2="302.19" y2="178.95" style="fill: none; stroke: #000; stroke-miterlimit: 10; stroke-width: 4px;"/>
      </g>
      <g>
        <path d="m205.43,55.08c.14-10.92,2.14-19.24,8.57-21.31,5.28-.05,8.91-4.74,12.11-10.66.75,7.97.67,15.4-2.42,20.84-3.39,7.27-11.14,3.88-18.27,11.13Z"/>
        <path d="m205.43,78.58c.14-10.92,2.14-19.24,8.57-21.31,5.28-.05,8.91-4.74,12.11-10.66.75,7.97.67,15.4-2.42,20.84-3.39,7.27-11.14,3.88-18.27,11.13Z"/>
        <path d="m205.43,102.08c.14-10.92,2.14-19.24,8.57-21.31,5.28-.05,8.91-4.74,12.11-10.66.75,7.97.67,15.4-2.42,20.84-3.39,7.27-11.14,3.88-18.27,11.13Z"/>
        <path d="m205.43,125.58c.14-10.92,2.14-19.24,8.57-21.31,5.28-.05,8.91-4.74,12.11-10.66.75,7.97.67,15.4-2.42,20.84-3.39,7.27-11.14,3.88-18.27,11.13Z"/>
        <path d="m205.43,149.08c.14-10.92,2.14-19.24,8.57-21.31,5.28-.05,8.91-4.74,12.11-10.66.75,7.97.67,15.4-2.42,20.84-3.39,7.27-11.14,3.88-18.27,11.13Z"/>
        <path d="m204.71,55.08c-.14-10.92-2.14-19.24-8.57-21.31-5.28-.05-8.91-4.74-12.11-10.66-.75,7.97-.67,15.4,2.42,20.84,3.39,7.27,11.14,3.88,18.27,11.13Z"/>
        <path d="m204.71,78.58c-.14-10.92-2.14-19.24-8.57-21.31-5.28-.05-8.91-4.74-12.11-10.66-.75,7.97-.67,15.4,2.42,20.84,3.39,7.27,11.14,3.88,18.27,11.13Z"/>
        <path d="m204.71,102.08c-.14-10.92-2.14-19.24-8.57-21.31-5.28-.05-8.91-4.74-12.11-10.66-.75,7.97-.67,15.4,2.42,20.84,3.39,7.27,11.14,3.88,18.27,11.13Z"/>
        <path d="m204.71,125.58c-.14-10.92-2.14-19.24-8.57-21.31-5.28-.05-8.91-4.74-12.11-10.66-.75,7.97-.67,15.4,2.42,20.84,3.39,7.27,11.14,3.88,18.27,11.13Z"/>
        <path d="m204.71,149.08c-.14-10.92-2.14-19.24-8.57-21.31-5.28-.05-8.91-4.74-12.11-10.66-.75,7.97-.67,15.4,2.42,20.84,3.39,7.27,11.14,3.88,18.27,11.13Z"/>
        <path d="m204.71,36.76c-4.32-4.31-7.41-9.8-7.42-18.26-.28-6.45,2.45-12.59,7.42-18.51,4.08,6.06,6.86,12.14,6.67,18.24-.02.5,0,1,.03,1.5.51,6.67-2.43,12.09-6.7,17.03Z"/>
        <line x1="204.71" y1="151.06" x2="204.71" y2="185.82" style="fill: none; stroke: #000; stroke-miterlimit: 10; stroke-width: 4px;"/>
      </g>
    </g>
  </g>
</svg>