<?xml version="1.0" encoding="UTF-8"?>
<svg id="Ebene_2" xmlns="http://www.w3.org/2000/svg" viewBox="0 0 500 350">
  <defs>
    <style>
      .cls-1 {
        fill: #fff;
      }

      .cls-2 {
        stroke-width: 4px;
      }

      .cls-2, .cls-3 {
        fill: none;
        stroke: #000;
        stroke-miterlimit: 10;
      }

      .cls-3 {
        stroke-width: 3px;
      }
    </style>
  </defs>
  <g id="Ebene_3">
    <g id="Landwirtschaft">
      <rect class="cls-1" width="500" height="350"/>
      <g id="Landwirtschaft-2" data-name="Landwirtschaft">
        <path class="cls-3" d="M109.17,267.42c3.42-11.86,9.78-19.32,23.89-15.23.58.17,1.14.41,1.68.68,16.62,8.4,34.38,10.12,54.18-.09.42-.21.81-.46,1.2-.73,7.12-4.97,16.71-8.4,28.07-10.73,3.85-.79,7.9-1.45,12.13-2,1.24-.16,2.5-.08,3.72.2,10.4,2.44,18.16,6.9,24.08,12.79,1.43,1.42,3.21,2.46,5.19,2.85,12.31,2.42,25.67,1.16,39.73-2.58.33-.09.67-.16,1.01-.22,12.88-2.07,23.99-.98,33.42,3.1,1.47.64,3.06.95,4.65.87,16.19-.86,31.38-3.25,44.78-8.39,1.51-.58,3.13-.8,4.73-.6,11.95,1.5,19.5,8.33,23.36,19.61,2.27,6.65-2.78,13.54-9.8,13.54H119.11c-6.82,0-11.83-6.53-9.94-13.08Z"/>
        <g>
          <path d="M185.68,138.61c-12.82,16.91-21.38,36.53-25.98,57.13-4.68,20.53-5.78,41.71-5.21,62.73l-4.82-.03c.82-14.16-.96-28.58-6.9-41.55-5.96-13.15-15.75-24.12-27.2-32.87,19.24,11.13,33.69,30.34,37.46,52.46,1.34,7.33,1.82,14.81,1.46,22.22l-4.82-.04c-1.92-42.23,5.74-88.49,36.01-120.05h0Z"/>
          <path d="M136.09,210.59c-13.14,12.76-29.01,13.39-39.38-2.99-4.2-7.92-7.02-16.53-9.37-25.1-2.43-8.93-4.22-18.06-4.28-27.37,17.54-3.59,39.38-4.83,53.31,8.62,4.4,4.39,8.03,9.71,9.62,15.8,2.16,7.86.49,16.48-3.14,23.59,0,0-.47-.18-.47-.18.95-3.79,1.6-7.6,1.67-11.37.43-11.25-6.32-21.39-15.48-27.37-6.07-3.86-13.41-5.8-20.9-6.58-7.59-.77-15.3-.45-22.94.1,0,0,1.24-1.38,1.24-1.38-1.39,12.99,2,26.18,8.16,37.61,3.8,6.91,6.88,13.82,13.04,18.74,8.91,7.13,19.82,2.63,28.62-2.52,0,0,.3.4.3.4h0Z"/>
          <path d="M156.41,177.11c-11.55-20.44-16.63-46.17,2.84-63.65,18.45-13.1,42.4-13.83,64.09-11.19,3.49,21.75.59,44.09-4.41,65.35-1.12,5.63-3.8,11.07-7.93,15.08-5.26,5.7-12.26,10.15-20.08,11.08-9.04,1.04-17.84-2.69-25.06-7.87,0,0,.26-.43.26-.43,3.46,1.63,7.32,3.44,11.04,4.27,6.1,1.66,12.88,1.48,18.53-1.1,6.55-3.07,12.49-8.77,15.87-15.2,1.1-2.17,1.7-4.66,2.19-7.04,1.18-5.16,2.27-10.33,3.25-15.52,2.98-15.52,4.57-31.36,3.65-47.17,0,0,1.2,1.26,1.2,1.26-5.21-1.03-10.48-1.85-15.79-2.15-10.53-.62-21.41.82-31,5.33-4.48,1.96-10.01,5.75-13.02,8.21-7.57,7.88-12,17.39-11.93,28.48-.07,11.06,3.24,21.64,6.76,32.07,0,0-.46.2-.46.2h0Z"/>
        </g>
        <g>
          <path d="M337.23,124.58c.14-10.92,2.14-19.24,8.57-21.31,5.28-.05,8.91-4.74,12.11-10.66.75,7.97.67,15.4-2.42,20.84-3.39,7.27-11.14,3.88-18.27,11.13Z"/>
          <path d="M337.23,148.08c.14-10.92,2.14-19.24,8.57-21.31,5.28-.05,8.91-4.74,12.11-10.66.75,7.97.67,15.4-2.42,20.84-3.39,7.27-11.14,3.88-18.27,11.13Z"/>
          <path d="M337.23,171.58c.14-10.92,2.14-19.24,8.57-21.31,5.28-.05,8.91-4.74,12.11-10.66.75,7.97.67,15.4-2.42,20.84-3.39,7.27-11.14,3.88-18.27,11.13Z"/>
          <path d="M337.23,195.08c.14-10.92,2.14-19.24,8.57-21.31,5.28-.05,8.91-4.74,12.11-10.66.75,7.97.67,15.4-2.42,20.84-3.39,7.27-11.14,3.88-18.27,11.13Z"/>
          <path d="M337.23,218.58c.14-10.92,2.14-19.24,8.57-21.31,5.28-.05,8.91-4.74,12.11-10.66.75,7.97.67,15.4-2.42,20.84-3.39,7.27-11.14,3.88-18.27,11.13Z"/>
          <path d="M336.51,124.58c-.14-10.92-2.14-19.24-8.57-21.31-5.28-.05-8.91-4.74-12.11-10.66-.75,7.97-.67,15.4,2.42,20.84,3.39,7.27,11.14,3.88,18.27,11.13Z"/>
          <path d="M336.51,148.08c-.14-10.92-2.14-19.24-8.57-21.31-5.28-.05-8.91-4.74-12.11-10.66-.75,7.97-.67,15.4,2.42,20.84,3.39,7.27,11.14,3.88,18.27,11.13Z"/>
          <path d="M336.51,171.58c-.14-10.92-2.14-19.24-8.57-21.31-5.28-.05-8.91-4.74-12.11-10.66-.75,7.97-.67,15.4,2.42,20.84,3.39,7.27,11.14,3.88,18.27,11.13Z"/>
          <path d="M336.51,195.08c-.14-10.92-2.14-19.24-8.57-21.31-5.28-.05-8.91-4.74-12.11-10.66-.75,7.97-.67,15.4,2.42,20.84,3.39,7.27,11.14,3.88,18.27,11.13Z"/>
          <path d="M336.51,218.58c-.14-10.92-2.14-19.24-8.57-21.31-5.28-.05-8.91-4.74-12.11-10.66-.75,7.97-.67,15.4,2.42,20.84,3.39,7.27,11.14,3.88,18.27,11.13Z"/>
          <path d="M336.51,106.26c-4.32-4.31-7.41-9.8-7.42-18.26-.28-6.45,2.45-12.59,7.42-18.51,4.08,6.06,6.86,12.14,6.67,18.24-.02.5,0,1,.03,1.5.51,6.67-2.43,12.09-6.7,17.03Z"/>
          <line class="cls-2" x1="336.51" y1="220.56" x2="336.51" y2="255.32"/>
        </g>
        <g>
          <path d="M385.97,124.58c.14-10.92,2.14-19.24,8.57-21.31,5.28-.05,8.91-4.74,12.11-10.66.75,7.97.67,15.4-2.42,20.84-3.39,7.27-11.14,3.88-18.27,11.13Z"/>
          <path d="M385.97,148.08c.14-10.92,2.14-19.24,8.57-21.31,5.28-.05,8.91-4.74,12.11-10.66.75,7.97.67,15.4-2.42,20.84-3.39,7.27-11.14,3.88-18.27,11.13Z"/>
          <path d="M385.97,171.58c.14-10.92,2.14-19.24,8.57-21.31,5.28-.05,8.91-4.74,12.11-10.66.75,7.97.67,15.4-2.42,20.84-3.39,7.27-11.14,3.88-18.27,11.13Z"/>
          <path d="M385.97,195.08c.14-10.92,2.14-19.24,8.57-21.31,5.28-.05,8.91-4.74,12.11-10.66.75,7.97.67,15.4-2.42,20.84-3.39,7.27-11.14,3.88-18.27,11.13Z"/>
          <path d="M385.97,218.58c.14-10.92,2.14-19.24,8.57-21.31,5.28-.05,8.91-4.74,12.11-10.66.75,7.97.67,15.4-2.42,20.84-3.39,7.27-11.14,3.88-18.27,11.13Z"/>
          <path d="M385.25,124.58c-.14-10.92-2.14-19.24-8.57-21.31-5.28-.05-8.91-4.74-12.11-10.66-.75,7.97-.67,15.4,2.42,20.84,3.39,7.27,11.14,3.88,18.27,11.13Z"/>
          <path d="M385.25,148.08c-.14-10.92-2.14-19.24-8.57-21.31-5.28-.05-8.91-4.74-12.11-10.66-.75,7.97-.67,15.4,2.42,20.84,3.39,7.27,11.14,3.88,18.27,11.13Z"/>
          <path d="M385.25,171.58c-.14-10.92-2.14-19.24-8.57-21.31-5.28-.05-8.91-4.74-12.11-10.66-.75,7.97-.67,15.4,2.42,20.84,3.39,7.27,11.14,3.88,18.27,11.13Z"/>
          <path d="M385.25,195.08c-.14-10.92-2.14-19.24-8.57-21.31-5.28-.05-8.91-4.74-12.11-10.66-.75,7.97-.67,15.4,2.42,20.84,3.39,7.27,11.14,3.88,18.27,11.13Z"/>
          <path d="M385.25,218.58c-.14-10.92-2.14-19.24-8.57-21.31-5.28-.05-8.91-4.74-12.11-10.66-.75,7.97-.67,15.4,2.42,20.84,3.39,7.27,11.14,3.88,18.27,11.13Z"/>
          <path d="M385.25,106.26c-4.32-4.31-7.41-9.8-7.42-18.26-.28-6.45,2.45-12.59,7.42-18.51,4.08,6.06,6.86,12.14,6.67,18.24-.02.5,0,1,.03,1.5.51,6.67-2.43,12.09-6.7,17.03Z"/>
          <line class="cls-2" x1="385.25" y1="220.56" x2="385.25" y2="248.45"/>
        </g>
        <g>
          <path d="M288.49,124.58c.14-10.92,2.14-19.24,8.57-21.31,5.28-.05,8.91-4.74,12.11-10.66.75,7.97.67,15.4-2.42,20.84-3.39,7.27-11.14,3.88-18.27,11.13Z"/>
          <path d="M288.49,148.08c.14-10.92,2.14-19.24,8.57-21.31,5.28-.05,8.91-4.74,12.11-10.66.75,7.97.67,15.4-2.42,20.84-3.39,7.27-11.14,3.88-18.27,11.13Z"/>
          <path d="M288.49,171.58c.14-10.92,2.14-19.24,8.57-21.31,5.28-.05,8.91-4.74,12.11-10.66.75,7.97.67,15.4-2.42,20.84-3.39,7.27-11.14,3.88-18.27,11.13Z"/>
          <path d="M288.49,195.08c.14-10.92,2.14-19.24,8.57-21.31,5.28-.05,8.91-4.74,12.11-10.66.75,7.97.67,15.4-2.42,20.84-3.39,7.27-11.14,3.88-18.27,11.13Z"/>
          <path d="M288.49,218.58c.14-10.92,2.14-19.24,8.57-21.31,5.28-.05,8.91-4.74,12.11-10.66.75,7.97.67,15.4-2.42,20.84-3.39,7.27-11.14,3.88-18.27,11.13Z"/>
          <path d="M287.76,124.58c-.14-10.92-2.14-19.24-8.57-21.31-5.28-.05-8.91-4.74-12.11-10.66-.75,7.97-.67,15.4,2.42,20.84,3.39,7.27,11.14,3.88,18.27,11.13Z"/>
          <path d="M287.76,148.08c-.14-10.92-2.14-19.24-8.57-21.31-5.28-.05-8.91-4.74-12.11-10.66-.75,7.97-.67,15.4,2.42,20.84,3.39,7.27,11.14,3.88,18.27,11.13Z"/>
          <path d="M287.76,171.58c-.14-10.92-2.14-19.24-8.57-21.31-5.28-.05-8.91-4.74-12.11-10.66-.75,7.97-.67,15.4,2.42,20.84,3.39,7.27,11.14,3.88,18.27,11.13Z"/>
          <path d="M287.76,195.08c-.14-10.92-2.14-19.24-8.57-21.31-5.28-.05-8.91-4.74-12.11-10.66-.75,7.97-.67,15.4,2.42,20.84,3.39,7.27,11.14,3.88,18.27,11.13Z"/>
          <path d="M287.76,218.58c-.14-10.92-2.14-19.24-8.57-21.31-5.28-.05-8.91-4.74-12.11-10.66-.75,7.97-.67,15.4,2.42,20.84,3.39,7.27,11.14,3.88,18.27,11.13Z"/>
          <path d="M287.76,106.26c-4.32-4.31-7.41-9.8-7.42-18.26-.28-6.45,2.45-12.59,7.42-18.51,4.08,6.06,6.86,12.14,6.67,18.24-.02.5,0,1,.03,1.5.51,6.67-2.43,12.09-6.7,17.03Z"/>
          <line class="cls-2" x1="287.76" y1="220.56" x2="287.76" y2="255.32"/>
        </g>
      </g>
    </g>
  </g>
</svg>