<?xml version="1.0" encoding="UTF-8"?>
<svg id="Ebene_2" xmlns="http://www.w3.org/2000/svg" viewBox="0 0 500 350">
  <defs>
    <style>
      .cls-1, .cls-2, .cls-3, .cls-4, .cls-5, .cls-6 {
        stroke: #000;
        stroke-miterlimit: 10;
      }

      .cls-1, .cls-5, .cls-6 {
        fill: none;
      }

      .cls-2, .cls-6 {
        stroke-width: 3px;
      }

      .cls-7 {
        fill: #fff;
      }

      .cls-3, .cls-5 {
        stroke-width: 4px;
      }
    </style>
  </defs>
  <g id="Ebene_3">
    <g id="Mobilität">
      <rect class="cls-7" width="500" height="350"/>
      <g id="Mobilität-2" data-name="Mobilität">
        <g>
          <path class="cls-2" d="M159.86,241.53c0-13.8,11.23-25.03,25.03-25.03s25.03,11.23,25.03,25.03-11.23,25.03-25.03,25.03c-13.8,0-25.03-11.23-25.03-25.03ZM162.8,241.53c0,12.18,9.9,22.08,22.08,22.08,12.18,0,22.08-9.9,22.08-22.08,0-12.18-9.9-22.08-22.08-22.08s-22.08,9.9-22.08,22.08Z"/>
          <path class="cls-2" d="M71.54,241.53c0-13.8,11.23-25.03,25.03-25.03s25.03,11.23,25.03,25.03c0,13.8-11.23,25.03-25.03,25.03s-25.03-11.23-25.03-25.03ZM74.48,241.53c0,12.18,9.9,22.08,22.08,22.08,12.18,0,22.08-9.9,22.08-22.08,0-12.18-9.9-22.08-22.08-22.08-12.18,0-22.08,9.9-22.08,22.08Z"/>
          <path class="cls-2" d="M110.24,198.84h59.14s2.25-2.11,2.25-2.11v-9.67h16.19c3.37,0,6.36,2.39,8.21,6.56,1.82,4.11,2.36,10.01-.22,12.84-.78.85-2.51,2.13-5.51,1.14l.93-2.79c1.45.48,2.06.05,2.4-.32,1.45-1.6,1.32-6.02-.3-9.67-.64-1.45-2.46-4.81-5.51-4.81h-13.25s0,8,0,8l-2.75,2.58,14.44,40.45-2.77.99-14.02-39.24-42.47,39.82-.43.4h-32.11s15.77-44.16,15.77-44.16ZM166.25,201.78h-53.93s-13.67,38.27-13.67,38.27h26.77s40.82-38.27,40.82-38.27Z"/>
          <rect class="cls-2" x="109.81" y="190" width="2.94" height="10.3"/>
          <polygon class="cls-2" points="103.92 192.95 120.11 192.95 120.4 190.03 103.92 186.73 103.92 192.95"/>
        </g>
        <path class="cls-5" d="M427.69,208.97c-.28-.51-.83-.82-1.41-.83l-14.12-.46c-.83-.03-1.53-.66-1.62-1.49-.58-4.95-2.41-9.49-5.4-13.65-.05-.06-.09-.11-.14-.17-4.41-4.93-9.65-8.67-16.2-10.51-.16-.04-.32-.07-.48-.07h-16.84c-.4,0-.93,0-1.57.02-5.03,0-16.31.02-16.43.05-6.56,1.84-11.79,5.58-16.2,10.51-.05.06-.09.11-.14.17-2.99,4.16-4.83,8.7-5.4,13.65-.09.83-.79,1.46-1.62,1.49l-14.12.46c-.59,0-1.13.32-1.41.83-1.56,2.86-.74,5.96,2.13,9.29.32.36.78.55,1.27.55h1.48c1.35,0,2.2,1.52,1.43,2.64-1,1.45-1.84,3.33-2.54,5.64-.04.16-.06.33-.06.5v16.32c.17,2.56.85,4.96,2.76,6.95.29.31.44.73.44,1.14v13.46c0,.15,0,.3.05.44,1.9,6.66,18.75,8.17,21.94.08.08-.19.11-.41.11-.61v-7.33c0-.93.74-1.68,1.67-1.69l25.88-.22,25.86.22c.93.01,1.67.76,1.67,1.69v7.33c0,.2.03.42.11.61,3.19,8.09,20.05,6.58,21.94-.08.04-.14.05-.29.05-.44v-13.46c0-.41.15-.83.44-1.14,1.9-1.99,2.59-4.39,2.76-6.95v-16.32c0-.17-.02-.34-.07-.5-.69-2.31-1.53-4.19-2.53-5.64-.78-1.12.06-2.64,1.43-2.64h1.48c.48,0,.95-.19,1.26-.55,2.87-3.33,3.69-6.43,2.14-9.29ZM344.63,240.05c-.16.05-.32.08-.48.09-3.34.33-6.74.32-10.18,0-.15-.01-.3-.01-.45,0-3.04.25-4.98-1.16-5.6-5.66-.02-.15-.03-.3-.03-.45.04-2.61,1.3-4.92,3.47-7,.17-.14.35-.28.55-.4,3.1-1.72,5.48-1.97,7.01-.51.1.09.21.19.32.28,4.19,2.87,6.78,5.85,7.82,8.92.82,2.86-.35,4.15-2.43,4.73ZM371.37,215.62c-.09,0-.16,0-.24-.02-.07.02-.14.02-.22.02h-22.91c-2.32,0-3.9-2.36-3.03-4.51,1.25-3.07,2.73-6.09,4.49-9.08,1.57-2.66,3.35-4.42,5.27-5.62.52-.33,1.13-.5,1.75-.5h14.04c.21,0,.42.02.63.06.19-.04.4-.06.61-.06h14.04c.62,0,1.23.17,1.75.5,1.91,1.2,3.7,2.96,5.27,5.62,1.75,2.99,3.24,6.01,4.49,9.08.87,2.15-.71,4.51-3.03,4.51h-22.91ZM414.36,234.48c-.63,4.5-2.57,5.91-5.6,5.66-.15-.01-.3-.01-.45,0-3.44.32-6.84.33-10.19,0-.16-.01-.31-.04-.47-.09-2.09-.58-3.26-1.87-2.43-4.73,1.04-3.07,3.63-6.05,7.81-8.92.11-.09.22-.19.33-.28,1.52-1.46,3.9-1.21,7.01.51.19.12.38.26.55.4,2.16,2.08,3.43,4.39,3.47,7,0,.15-.01.3-.03.45Z"/>
        <path class="cls-3" d="M414.39,234.03c0,.15-.01.3-.03.45-.63,4.5-2.57,5.91-5.6,5.66-.15-.01-.3-.01-.45,0-3.44.32-6.84.33-10.19,0-.16-.01-.31-.04-.47-.09-2.09-.58-3.26-1.87-2.43-4.73,1.04-3.07,3.63-6.05,7.81-8.92.11-.09.22-.19.33-.28,1.52-1.46,3.9-1.21,7.01.51.19.12.38.26.55.4,2.16,2.08,3.43,4.39,3.47,7Z"/>
        <path class="cls-3" d="M344.63,240.05c-.16.05-.32.08-.48.09-3.34.33-6.74.32-10.18,0-.15-.01-.3-.01-.45,0-3.04.25-4.98-1.16-5.6-5.66-.02-.15-.03-.3-.03-.45.04-2.61,1.3-4.92,3.47-7,.17-.14.35-.28.55-.4,3.1-1.72,5.48-1.97,7.01-.51.1.09.21.19.32.28,4.19,2.87,6.78,5.85,7.82,8.92.82,2.86-.35,4.15-2.43,4.73Z"/>
        <path class="cls-3" d="M394.28,215.62h-22.91c-.09,0-.16,0-.24-.02-.07.02-.14.02-.22.02h-22.91c-2.32,0-3.9-2.36-3.03-4.51,1.25-3.07,2.73-6.09,4.49-9.08,1.57-2.66,3.35-4.42,5.27-5.62.52-.33,1.13-.5,1.75-.5h14.04c.21,0,.42.02.63.06.19-.04.4-.06.61-.06h14.04c.62,0,1.23.17,1.75.5,1.91,1.2,3.7,2.96,5.27,5.62,1.75,2.99,3.24,6.01,4.49,9.08.87,2.15-.71,4.51-3.03,4.51Z"/>
        <g>
          <line class="cls-6" x1="298.99" y1="117.52" x2="233.38" y2="117.52"/>
          <path class="cls-6" d="M180.18,117.52h-9.94c-3.82,0-6.9-3.08-6.9-6.9v-55.41c0-7.16,5.8-12.96,12.96-12.96h140.86c5.43,0,10.42,2.45,13.74,6.47"/>
          <path class="cls-6" d="M334.45,55.56l5.32,15.93c.59,1.77.89,3.64.89,5.5v33.24c0,4.03-3.27,7.29-7.29,7.29h-13.1"/>
          <line class="cls-6" x1="212.1" y1="117.52" x2="201.46" y2="117.52"/>
          <line class="cls-6" x1="163.34" y1="74.97" x2="340.53" y2="74.97"/>
          <path class="cls-2" d="M201.46,117.52v.09c0,5.88-4.76,10.64-10.64,10.64s-10.64-4.76-10.64-10.64v-.09c.05-5.84,4.8-10.55,10.64-10.55s10.59,4.71,10.64,10.55Z"/>
          <path class="cls-2" d="M233.38,117.52v.09c0,5.88-4.76,10.64-10.64,10.64s-10.64-4.76-10.64-10.64v-.09c.05-5.84,4.79-10.55,10.64-10.55s10.59,4.71,10.64,10.55Z"/>
          <path class="cls-2" d="M320.27,117.52v.09c0,5.88-4.77,10.64-10.64,10.64s-10.64-4.76-10.64-10.64v-.09c.05-5.84,4.79-10.55,10.64-10.55s10.59,4.71,10.64,10.55Z"/>
          <path class="cls-4" d="M190.82,49.76v16.89c0,.73-.58,1.31-1.3,1.31h-16.9c-.72,0-1.3-.58-1.3-1.31v-16.89c0-.72.58-1.3,1.3-1.3h16.9c.72,0,1.3.58,1.3,1.3Z"/>
          <path class="cls-4" d="M219.55,49.76v16.89c0,.73-.59,1.31-1.31,1.31h-16.89c-.72,0-1.31-.58-1.31-1.31v-16.89c0-.72.59-1.3,1.31-1.3h16.89c.72,0,1.31.58,1.31,1.3Z"/>
          <path class="cls-4" d="M248.27,49.76v16.89c0,.73-.58,1.31-1.3,1.31h-16.89c-.73,0-1.31-.58-1.31-1.31v-16.89c0-.72.58-1.3,1.31-1.3h16.89c.72,0,1.3.58,1.3,1.3Z"/>
          <path class="cls-4" d="M277,49.76v16.89c0,.73-.59,1.31-1.31,1.31h-16.89c-.72,0-1.31-.58-1.31-1.31v-16.89c0-.72.59-1.3,1.31-1.3h16.89c.72,0,1.31.58,1.31,1.3Z"/>
          <path class="cls-4" d="M305.73,49.76v16.89c0,.73-.59,1.31-1.31,1.31h-16.89c-.72,0-1.31-.58-1.31-1.31v-16.89c0-.72.59-1.3,1.31-1.3h16.89c.72,0,1.31.58,1.31,1.3Z"/>
          <path class="cls-4" d="M334.45,55.56v11.09c0,.73-.58,1.31-1.31,1.31h-16.89c-.72,0-1.3-.58-1.3-1.31v-16.89c0-.72.58-1.3,1.3-1.3h13.04c.56,0,1.1.09,1.61.26,1.38,1.66,2.46,3.6,3.18,5.73l.37,1.11Z"/>
          <path class="cls-1" d="M334.45,53.62v1.94l-.37-1.11c-.72-2.13-1.8-4.07-3.18-5.73,2.06.67,3.55,2.61,3.55,4.9Z"/>
        </g>
        <path class="cls-5" d="M353.1,103.71c16.44,19.74,26.89,44.62,28.57,71.83M178.2,279.24c21.54,17.81,49.15,28.51,79.2,28.51s55.88-10.03,77.1-26.81M347.19,113.91c12.72,16.43,21.04,36.42,23.16,58.2M191.14,275.34c18.66,13.47,41.55,21.41,66.26,21.41s45.73-7.3,63.95-19.79M132.93,180.4c.52-22.85,7.22-44.2,18.5-62.44M144.07,177.05c1.03-19.06,6.78-36.87,16.11-52.31"/>
      </g>
    </g>
  </g>
</svg>