<?xml version="1.0" encoding="UTF-8"?>
<svg id="Ebene_2" data-name="Ebene 2" xmlns="http://www.w3.org/2000/svg" viewBox="0 0 274.55 261.62">
  <g id="Ebene_3" data-name="Ebene 3">
    <g id="Stadtplanung">
      <polygon points="48.9 50.78 90.3 21.89 126.95 50.78 48.9 50.78" style="fill: none; stroke: #000; stroke-miterlimit: 10; stroke-width: 4px;"/>
      <rect x="56.78" y="50.78" width="64.17" height="45.53" style="fill: none; stroke: #000; stroke-miterlimit: 10; stroke-width: 4px;"/>
      <polyline points="274.06 96.31 254.63 96.31 253.28 96.31 182.36 96.31" style="fill: none; stroke: #000; stroke-miterlimit: 10; stroke-width: 4px;"/>
      <polyline points="139.62 96.31 120.94 96.31 56.78 96.31 21.26 96.31 1.12 96.31" style="fill: none; stroke: #000; stroke-miterlimit: 10; stroke-width: 4px;"/>
      <polygon points="182.36 27.14 182.36 96.31 139.62 96.31 139.46 44.83 182.36 27.14" style="stroke: #000; stroke-miterlimit: 10; stroke-width: 4px;"/>
      <line x1="139.62" y1="97.12" x2="139.62" y2="96.31" style="fill: none; stroke: #000; stroke-miterlimit: 10; stroke-width: 4px;"/>
      <polyline points="182.36 27.14 182.36 4.16 225.27 38.52 225.27 95.87" style="fill: none; stroke: #000; stroke-miterlimit: 10; stroke-width: 4px;"/>
      <line x1="253.29" y1="69.17" x2="253.29" y2="96.31" style="fill: none; stroke: #000; stroke-miterlimit: 10; stroke-width: 6px;"/>
      <ellipse cx="253.29" cy="35.9" rx="19.26" ry="33.27" style="fill: none; stroke: #000; stroke-miterlimit: 10; stroke-width: 4px;"/>
      <line x1="21.26" y1="69.17" x2="21.26" y2="96.31" style="fill: none; stroke: #000; stroke-miterlimit: 10; stroke-width: 6px;"/>
      <ellipse cx="21.26" cy="35.9" rx="19.26" ry="33.27" style="fill: none; stroke: #000; stroke-miterlimit: 10; stroke-width: 4px;"/>
      <line x1="11.63" y1="121.7" x2="254.4" y2="121.7" style="fill: none; stroke: #000; stroke-dasharray: 0 0 25 10; stroke-miterlimit: 10; stroke-width: 3px;"/>
      <line x1="1.12" y1="143.44" x2="272.55" y2="143.44" style="fill: none; stroke: #000; stroke-miterlimit: 10; stroke-width: 4px;"/>
      <path d="m32.74,143.44v28.47h22.67l12.26,24.22-20.14,20.14,30.64,28.02,19.26-16.64,18.39,9.79v21.69h42.9v-23.95l22.76-9.28,14.88,14.88,30.64-29.77-17.51-17.51,11.38-18.39s24.08,1.31,22.76,0l.05-31.68" style="fill: none; stroke: #000; stroke-miterlimit: 10; stroke-width: 5px;"/>
      <path d="m167.92,143.43c.85,2.82,1.31,5.81,1.31,8.91,0,16.92-13.72,30.64-30.64,30.64s-30.64-13.72-30.64-30.64c0-3.1.46-6.09,1.31-8.91" style="fill: none; stroke: #000; stroke-miterlimit: 10; stroke-width: 4px;"/>
    </g>
  </g>
</svg>