<?xml version="1.0" encoding="UTF-8"?>
<svg id="Ebene_2" xmlns="http://www.w3.org/2000/svg" viewBox="0 0 500 350">
  <defs>
    <style>
      .cls-1 {
        stroke-dasharray: 25 10;
        stroke-width: 3px;
      }

      .cls-1, .cls-2, .cls-3, .cls-4, .cls-5 {
        stroke: #000;
        stroke-miterlimit: 10;
      }

      .cls-1, .cls-3, .cls-4, .cls-5 {
        fill: none;
      }

      .cls-6 {
        fill: #fff;
      }

      .cls-2, .cls-4 {
        stroke-width: 4px;
      }

      .cls-3 {
        stroke-width: 6px;
      }

      .cls-5 {
        stroke-width: 5px;
      }
    </style>
  </defs>
  <g id="Ebene_3">
    <g id="Stadtplanung">
      <rect class="cls-6" width="500" height="350"/>
      <g id="Stadtplanung-2" data-name="Stadtplanung">
        <polygon class="cls-4" points="161.31 94.91 202.71 66.01 239.36 94.91 161.31 94.91"/>
        <rect class="cls-4" x="169.19" y="94.91" width="64.17" height="45.53"/>
        <polyline class="cls-4" points="386.47 140.44 367.04 140.44 365.69 140.44 294.77 140.44"/>
        <polyline class="cls-4" points="252.03 140.44 233.35 140.44 169.19 140.44 133.67 140.44 113.53 140.44"/>
        <polygon class="cls-2" points="294.77 71.27 294.77 140.44 252.03 140.44 251.87 88.96 294.77 71.27"/>
        <line class="cls-4" x1="252.03" y1="141.25" x2="252.03" y2="140.44"/>
        <polyline class="cls-4" points="294.77 71.27 294.77 48.29 337.68 82.65 337.68 140"/>
        <line class="cls-3" x1="365.69" y1="113.29" x2="365.69" y2="140.44"/>
        <ellipse class="cls-4" cx="365.69" cy="80.02" rx="19.26" ry="33.27"/>
        <line class="cls-3" x1="133.67" y1="113.29" x2="133.67" y2="140.44"/>
        <ellipse class="cls-4" cx="133.67" cy="80.02" rx="19.26" ry="33.27"/>
        <line class="cls-1" x1="124.04" y1="165.83" x2="366.81" y2="165.83"/>
        <line class="cls-4" x1="113.53" y1="187.56" x2="384.96" y2="187.56"/>
        <path class="cls-5" d="M145.15,187.56v28.47h22.67l12.26,24.22-20.14,20.14,30.64,28.02,19.26-16.64,18.39,9.79v21.69h42.9v-23.95l22.76-9.28,14.88,14.88,30.64-29.77-17.51-17.51,11.38-18.39s24.08,1.31,22.76,0l.05-31.68"/>
        <path class="cls-4" d="M280.33,187.56c.85,2.82,1.31,5.81,1.31,8.91,0,16.92-13.72,30.64-30.64,30.64s-30.64-13.72-30.64-30.64c0-3.1.46-6.09,1.31-8.91"/>
      </g>
    </g>
  </g>
</svg>