<?xml version="1.0" encoding="UTF-8"?>
<svg id="Ebene_2" xmlns="http://www.w3.org/2000/svg" viewBox="0 0 500 350">
  <defs>
    <style>
      .cls-1 {
        fill: #fff;
      }

      .cls-2 {
        fill: none;
        stroke: #000;
        stroke-miterlimit: 10;
        stroke-width: 3px;
      }
    </style>
  </defs>
  <g id="Ebene_3">
    <g id="Torismus__x26__Freizeit">
      <rect class="cls-1" width="500" height="350"/>
      <g id="Tourismus_und_Freizeit">
        <g>
          <path class="cls-2" d="M258,203.75l-13-20c-15,41-54,35-69-12-12.64,32.04-29.87,53.04-60,43,8.42,14.02,6.79,27.43-9,40,30.55-15.06,48.3-11.65,41,28,8.56-22.43,20.67-34.12,39-27l-12-26c38.9,5.05,65.2-5.28,83-26Z"/>
          <path d="M276,183.75c-13.96,39.83-28,56-87,54,16.61,12.49,18.51,29.65,4,52,37.92-29.16,56.51-18.95,61,20,13.43-45.37,40.19-45.96,79-6-10.48-30.34-6.11-51.85,19-61-37.34,1.77-63.75-15.99-76-59Z"/>
          <path d="M383.5,316.25l-3.09-121c1.06-3.13,2.77-5.06,5-6,10.34-2.67,9.23-5.73,2-9v-5c6.89-2.6,6.57-5.27,0-8v-4c7.12-2.7,6.97-5.42,1.5-8.15l-10-1.35v-17s10-8,10-8c1.5-4.5,1.63-10.46,0-15-2.65-1.48-6.49-2.43-12-2.65l1-10.35c12.5-1.5,12.5-8.5-2-10.16l-2.41-53.34c-1.29-4.39-2.61-4.94-4,0l-1.5,53.34c-14.5,1.66-14.5,8.66-2,10.16l1,10.35c-5.51.21-9.35,1.17-12,2.65-1.63,4.54-1.5,10.5,0,15l10,8v17l-10,1.35c-5.47,2.73-5.62,5.44,1.5,8.15v4c-6.57,2.73-6.89,5.4,0,8v5c-7.23,3.27-8.34,6.33,2,9,2.23.94,3.94,2.87,5,6l-3,121h23Z"/>
        </g>
        <path d="M358.5,189.25c-.5-.21,4.33,4.03,5,6"/>
      </g>
    </g>
  </g>
</svg>