<?xml version="1.0" encoding="UTF-8"?>
<svg id="Ebene_2" data-name="Ebene 2" xmlns="http://www.w3.org/2000/svg" viewBox="0 0 174.45 227.33">
  <g id="Ebene_3" data-name="Ebene 3">
    <g id="Umwelt">
      <path d="m114.73,134.34c16.73,11.16,29.29,12.01,40.31-5.75,4.93-9.4,9.92-18.9,13.03-29.1,3.11-10.16,4.32-20.97,3.39-31.54,0,0,1.26,1.42,1.26,1.42-19.23-1.84-41.87-2.11-55.88,12.93-7.78,8-12.14,18.43-11.6,29.67.14,4.47.9,8.97,1.99,13.43l-.47.16c-6.12-13.07-6.37-28.67,1.92-40.95,11.16-17.9,31.01-21.88,50.7-20.25,5.1.39,10.1,1.34,15.08,2.31,0,5.85-.58,11.68-1.46,17.4-1.72,10.7-4.43,21.17-7.84,31.46-1.75,5.2-3.82,10.3-6.23,15.22-4.48,7.6-11.89,15.01-21.35,15.25-4.52.21-9-1.27-12.93-3.41-3.83-2.14-7.2-4.87-10.23-7.87l.32-.39h0Z"/>
      <g>
        <path d="m58.09,46.1c34.58,41.83,42.7,110.57,40.82,163.31,0,0-4.82.03-4.82.03-.47-10.09.19-20.19,1.65-30.14,4.61-29.23,16.89-59.9,41.94-77.26-30.12,25.14-40.43,69.42-38.78,107.17,0,0-4.82.03-4.82.03.44-14.13.11-28.28-.82-42.38-3.42-41.55-11.12-85.8-35.19-120.77h0Z"/>
        <g>
          <path d="m35.8,141.1c21.56.02,41.49,13.82,52.28,32.01,3.69,6.05,6.55,12.56,8.44,19.31-3.43-6.12-6.99-12.04-11.04-17.57-11.99-16.81-29.39-29.18-49.69-33.75h0Z"/>
          <path d="m61.82,153.23c-3.55,15.48-15.11,22.01-29.4,13.72-6.47-4.42-12.06-10.04-17.39-15.73-5.56-5.95-10.85-12.15-15.03-19.21,15.72-14.77,37.55-24.34,55.37-7,5.09,5.33,7.6,12.62,7.98,19.8,0,0-.49.09-.49.09-2.01-6.22-4.86-12.12-9.42-16.2-4.42-4.09-10.3-6.55-16.21-7.43-12.35-1.6-24.37,5.5-34.39,12.21,0,0,.4-1.85.4-1.85,2.98,6.92,7.44,13.27,12.98,18.41,2.78,2.59,5.83,4.88,8.97,6.99,7.33,4.52,15.64,11.9,24.79,8.45,5.25-2.14,8.52-7.57,11.38-12.43,0,0,.47.18.47.18h0Z"/>
        </g>
      </g>
      <path d="m90.84,93.31c4.12-12.81,7.9-25.85,7.89-39.36.1-14.15-4.91-25.68-13.44-35.55-9-7.95-20.1-13.68-32.05-15.64-12.02-2.11-24.35-.98-36.22,1.52,0,0,1.15-1.24,1.15-1.24-1.64,26.99,2.68,53.84,8.26,80.19,1.18,5.88,4.37,11.15,8.37,15.57,7.15,8.38,16.74,13.45,27.94,11.68,6.23-.91,12.1-3.55,17.57-6.59,0,0,.28.42.28.42-5.19,3.86-11.04,7.18-17.37,8.68-11.95,3.06-23.72-2.14-31.85-11.05-3.52-3.65-6.69-7.82-8.49-12.62-1.21-2.69-1.91-6.76-2.62-9.64C14.98,54.53,11.89,28.39,15.38,2.77c0,0,.15-1.09.15-1.09,0,0,1-.15,1-.15C40.83-2,67.71-.23,87.76,15.39c14.33,13.89,17.49,32.66,13.25,51.57-2.06,9.22-5.51,18.14-9.71,26.54,0,0-.46-.19-.46-.19h0Z"/>
      <path d="m169.51,209.33c0,9.94-32.46,18-72.5,18s-72.5-8.06-72.5-18,29.79-17.32,67.5-17.96c-.79,7.04-.93,13.98-.2,20.8.12,1.12,1.02,2.01,2.14,2.14,1.79.21,3.86.02,5.3-.18,1.03-.14,1.81-.99,1.87-2.03.25-4.23.76-15.14-.11-20.75,38.18.52,68.5,8.37,68.5,17.98Z"/>
    </g>
  </g>
</svg>