<?xml version="1.0" encoding="UTF-8"?>
<svg id="Ebene_2" xmlns="http://www.w3.org/2000/svg" viewBox="0 0 500 350">
  <defs>
    <style>
      .cls-1 {
        fill: #fff;
      }

      .cls-2 {
        stroke-width: 2px;
      }

      .cls-2, .cls-3 {
        fill: none;
        stroke: #000;
        stroke-linecap: round;
        stroke-linejoin: round;
      }

      .cls-3 {
        stroke-width: 4px;
      }
    </style>
  </defs>
  <g id="Ebene_3">
    <g id="Verwaltung">
      <rect class="cls-1" width="500" height="350"/>
      <g id="Verwaltung-2" data-name="Verwaltung">
        <path class="cls-3" d="M127.21,291.5h220.1c20.4-9.5,36.68-65.75,45.9-130h-222c-8.56,69.64-21.48,120.5-44,130l-20.42-213h62.42"/>
        <path class="cls-3" d="M346.27,161.5c18.45-21.15,25.58-56.12,22.94-103h-202.55c28.55,60-36.45,109-31.45,189h19.72"/>
        <line class="cls-2" x1="195.21" y1="85.5" x2="340.6" y2="85.5"/>
        <line class="cls-2" x1="195.21" y1="96.5" x2="340.6" y2="96.5"/>
        <line class="cls-2" x1="195.21" y1="107.5" x2="340.6" y2="107.5"/>
        <line class="cls-2" x1="192.21" y1="118.5" x2="337.6" y2="118.5"/>
        <line class="cls-2" x1="189.21" y1="128.5" x2="334.6" y2="128.5"/>
        <line class="cls-2" x1="186.21" y1="138.5" x2="331.6" y2="138.5"/>
        <line class="cls-2" x1="182.21" y1="148.5" x2="327.6" y2="148.5"/>
      </g>
    </g>
  </g>
</svg>