<?xml version="1.0" encoding="UTF-8"?>
<svg id="Ebene_2" data-name="Ebene 2" xmlns="http://www.w3.org/2000/svg" viewBox="0 0 290.42 237">
  <g id="Ebene_3" data-name="Ebene 3">
    <g id="Verwaltung">
      <path d="m22.42,235h220.1c20.4-9.5,36.68-65.75,45.9-130H66.42c-8.56,69.64-21.48,120.5-44,130L2,22h62.42" style="fill: none; stroke: #000; stroke-linecap: round; stroke-linejoin: round; stroke-width: 4px;"/>
      <path d="m241.48,105c18.45-21.15,25.58-56.12,22.94-103H61.87c28.55,60-36.45,109-31.45,189h19.72" style="fill: none; stroke: #000; stroke-linecap: round; stroke-linejoin: round; stroke-width: 4px;"/>
      <line x1="90.42" y1="29" x2="235.81" y2="29" style="fill: none; stroke: #000; stroke-linecap: round; stroke-linejoin: round; stroke-width: 2px;"/>
      <line x1="90.42" y1="40" x2="235.81" y2="40" style="fill: none; stroke: #000; stroke-linecap: round; stroke-linejoin: round; stroke-width: 2px;"/>
      <line x1="90.42" y1="51" x2="235.81" y2="51" style="fill: none; stroke: #000; stroke-linecap: round; stroke-linejoin: round; stroke-width: 2px;"/>
      <line x1="87.42" y1="62" x2="232.81" y2="62" style="fill: none; stroke: #000; stroke-linecap: round; stroke-linejoin: round; stroke-width: 2px;"/>
      <line x1="84.42" y1="72" x2="229.81" y2="72" style="fill: none; stroke: #000; stroke-linecap: round; stroke-linejoin: round; stroke-width: 2px;"/>
      <line x1="81.42" y1="82" x2="226.81" y2="82" style="fill: none; stroke: #000; stroke-linecap: round; stroke-linejoin: round; stroke-width: 2px;"/>
      <line x1="77.42" y1="92" x2="222.81" y2="92" style="fill: none; stroke: #000; stroke-linecap: round; stroke-linejoin: round; stroke-width: 2px;"/>
    </g>
  </g>
</svg>